<svg width="16" height="16" viewBox="0 0 16 16" fill="none" xmlns="http://www.w3.org/2000/svg">
<path d="M7.99998 14.3C11.4794 14.3 14.3 11.4793 14.3 7.99995C14.3 4.52056 11.4794 1.69995 7.99998 1.69995C4.52059 1.69995 1.69998 4.52056 1.69998 7.99995C1.69998 11.4793 4.52059 14.3 7.99998 14.3Z" stroke="#4D5F80" stroke-width="1.2" stroke-miterlimit="10"/>
<path d="M7.99998 14.3C11.4794 14.3 14.3 11.4793 14.3 7.99995C14.3 4.52056 11.4794 1.69995 7.99998 1.69995C4.52059 1.69995 1.69998 4.52056 1.69998 7.99995C1.69998 11.4793 4.52059 14.3 7.99998 14.3Z" stroke="#4D5F80" stroke-width="1.2" stroke-miterlimit="10"/>
<path d="M7.99999 8.57018C8.31479 8.57018 8.56999 8.31498 8.56999 8.00018C8.56999 7.68537 8.31479 7.43018 7.99999 7.43018C7.68519 7.43018 7.42999 7.68537 7.42999 8.00018C7.42999 8.31498 7.68519 8.57018 7.99999 8.57018Z" stroke="#4D5F80" stroke-width="1.2" stroke-miterlimit="10"/>
<path d="M7.99998 3.41602V7.43002" stroke="#4D5F80" stroke-width="1.2" stroke-miterlimit="10"/>
<path d="M10.862 10.8621L8.56999 8.57007" stroke="#4D5F80" stroke-width="1.2" stroke-miterlimit="10"/>
</svg>
