<svg width="180" height="32" viewBox="0 0 180 32" fill="none" xmlns="http://www.w3.org/2000/svg">
<path d="M88.243 20.314L84 16.07L85.414 14.656L88.243 17.484L93.899 11.827L95.314 13.242L88.243 20.314Z" fill="#4D5F80"/>
<path fill-rule="evenodd" clip-rule="evenodd" d="M79 16C79 9.925 83.925 5 90 5C96.075 5 101 9.925 101 16C101 22.075 96.075 27 90 27C83.925 27 79 22.075 79 16ZM90 25C88.8181 25 87.6478 24.7672 86.5558 24.3149C85.4639 23.8626 84.4718 23.1997 83.636 22.364C82.8003 21.5282 82.1374 20.5361 81.6851 19.4442C81.2328 18.3522 81 17.1819 81 16C81 14.8181 81.2328 13.6478 81.6851 12.5558C82.1374 11.4639 82.8003 10.4718 83.636 9.63604C84.4718 8.80031 85.4639 8.13738 86.5558 7.68508C87.6478 7.23279 88.8181 7 90 7C92.3869 7 94.6761 7.94821 96.364 9.63604C98.0518 11.3239 99 13.6131 99 16C99 18.3869 98.0518 20.6761 96.364 22.364C94.6761 24.0518 92.3869 25 90 25Z" fill="#4D5F80"/>
</svg>
