<svg width="167" height="51" viewBox="0 0 167 51" fill="none" xmlns="http://www.w3.org/2000/svg">
<path fill-rule="evenodd" clip-rule="evenodd" d="M22.2662 39.9652V47.1418L23.5151 47.0767L24.7641 47.0115L24.8214 39.9L24.8786 32.7886H23.5725H22.2662V39.9652ZM78.7407 35.3869V37.9855L78.0347 37.5744C75.8922 36.3267 73.3411 37.1158 72.1822 39.3845C71.6138 40.4976 71.4153 42.8278 71.79 43.9952C72.1384 45.0818 72.9616 46.1777 73.8243 46.7034C75.1128 47.489 77.6679 47.1746 78.5393 46.1234C78.8243 45.7794 78.8582 45.8003 78.9601 46.3805C79.0606 46.9531 79.1508 47.0115 79.9375 47.0115C80.7961 47.0115 80.8042 47.0039 80.7933 46.1972C80.7872 45.7495 80.7629 42.5492 80.739 39.0858L80.6956 32.7886H79.7181H78.7407V35.3869ZM45.0095 33.4435C43.9556 34.2721 44.4743 35.8286 45.8043 35.8286C46.7896 35.8286 47.3176 35.3811 47.3176 34.5461C47.3176 33.2659 46.0222 32.647 45.0095 33.4435ZM2.06569 33.4248L0.436623 33.5486V40.28V47.0115L1.68558 47.0767L2.93453 47.1418V44.545V41.9482L4.4967 41.9334C8.10456 41.8997 10.3036 39.4291 9.47254 36.3432C8.82526 33.9401 6.63622 33.0776 2.06569 33.4248ZM127.667 35.2249C127.286 35.4089 127.178 35.6442 127.178 36.2961C127.178 37.1061 127.155 37.1315 126.418 37.1315C125.694 37.1315 125.658 37.1677 125.658 37.8915C125.658 38.6152 125.694 38.6515 126.418 38.6515H127.178V42.0315C127.178 44.0931 127.273 45.5964 127.421 45.8858C127.893 46.8087 128.513 47.1101 129.948 47.1153L131.305 47.1201V46.3601C131.305 45.6222 131.281 45.6001 130.463 45.6001C129.147 45.6001 129.035 45.3174 128.95 41.7671L128.875 38.6515H130.213H131.55L131.482 37.9457C131.415 37.2481 131.4 37.2394 130.165 37.1749L128.916 37.1097V36.0349C128.916 34.8725 128.695 34.7294 127.667 35.2249ZM6.21896 36.0058C7.49007 37.1414 7.01525 39.2564 5.37901 39.7461C4.93047 39.8805 4.2215 39.9578 3.80337 39.9181L3.04314 39.8458L2.98123 37.62L2.91933 35.3943H4.22671C5.3536 35.3943 5.6288 35.4788 6.21896 36.0058ZM13.4942 37.234C9.59418 38.6237 9.23122 44.8014 12.9386 46.6921C14.085 47.2769 16.5347 47.2838 17.6592 46.7058C19.4698 45.7744 20.3139 44.2646 20.3065 41.9699C20.3009 40.1941 19.8319 39.0384 18.7222 38.0643C17.4372 36.9362 15.2879 36.5949 13.4942 37.234ZM29.1083 37.1262C27.8893 37.4396 27.2698 37.7675 27.3682 38.0474C27.9104 39.5869 27.8126 39.5046 28.7147 39.1828C30.0747 38.6979 31.3227 38.7826 31.9418 39.4017C32.8519 40.3113 32.7066 40.439 30.4652 40.6963C28.1534 40.9617 26.7327 42.2886 26.737 44.1789C26.7414 46.1243 27.8246 47.1201 29.9361 47.1201C30.8221 47.1201 31.3023 46.9905 31.8886 46.5926L32.6662 46.0652L32.7335 46.5384C32.7915 46.9466 32.9594 47.0206 33.9553 47.0777L35.1098 47.1438L35.0414 43.3863C34.9816 40.1029 34.9165 39.519 34.5259 38.76C33.7279 37.2092 31.4537 36.5235 29.1083 37.1262ZM40.9931 37.3506C40.6008 37.5899 40.224 37.9314 40.1553 38.1099C39.944 38.6606 39.643 38.4686 39.643 37.7829C39.643 37.1456 39.6193 37.1315 38.5528 37.1315H37.4626L37.521 42.0715L37.5795 47.0115H38.7741H39.9688L40.0774 43.932C40.1716 41.2596 40.2453 40.773 40.6352 40.2523C41.1098 39.6178 42.1028 39.2293 42.7382 39.4295C43.0716 39.5346 43.1183 39.3874 43.1183 38.2317V36.9143L42.4124 36.9152C42.0242 36.9156 41.3854 37.1115 40.9931 37.3506ZM51.2465 37.326C49.9739 37.9041 49.4174 38.7034 49.4174 39.9543C49.4174 41.3488 49.9895 42.0153 51.955 42.9108C53.2659 43.5079 53.5444 43.7233 53.5444 44.1398C53.5444 44.4175 53.4271 44.7619 53.2837 44.9052C52.9184 45.2705 51.0408 45.2303 50.2877 44.8409C49.5714 44.4705 49.4865 44.5485 49.2936 45.7545C49.1598 46.5911 49.1834 46.6374 49.8611 46.8736C51.0643 47.2929 53.759 47.1863 54.5781 46.6869C56.0614 45.7829 56.5597 43.9932 55.7141 42.6065C55.4039 42.098 54.7964 41.6617 53.5974 41.0865C51.8399 40.2438 51.5267 39.831 52.1625 39.1952C52.4535 38.9044 52.7672 38.8449 53.5309 38.9364C54.0759 39.0015 54.6865 39.1188 54.8878 39.1967C55.1745 39.3079 55.3116 39.1461 55.5199 38.4508C55.6663 37.9625 55.7293 37.5063 55.6598 37.4368C55.4432 37.2203 53.9101 36.9247 53.0013 36.9243C52.5235 36.9241 51.7339 37.105 51.2465 37.326ZM65.0751 37.0622C64.1127 37.262 62.9146 38.1968 62.3192 39.2123C61.4806 40.6431 61.3394 42.9281 61.9975 44.4158C62.9133 46.4852 63.9789 47.1201 66.5359 47.1201C68.6522 47.1201 69.6192 46.8235 69.6146 46.1759C69.6087 45.3591 69.327 45.1219 68.6626 45.3745C68.3361 45.4987 67.5331 45.6001 66.8778 45.6001C65.0076 45.6001 63.8427 44.7995 63.6079 43.3529L63.481 42.5716L66.8209 42.5116L70.1609 42.4515L70.1227 41.0876C70.0788 39.5237 69.6739 38.6775 68.5318 37.7629C67.7553 37.141 66.2068 36.827 65.0751 37.0622ZM102.342 37.2311C101.882 37.3949 101.279 37.7425 101.001 38.0037L100.495 38.4788L100.424 37.8595C100.362 37.3156 100.254 37.2318 99.5385 37.1727L98.724 37.1052V43.9585V50.8115H99.7014H100.679V48.4295V46.0474L101.469 46.5837C102.092 47.0061 102.536 47.1201 103.558 47.1201C105.954 47.1201 107.458 45.7454 107.903 43.1464C108.272 40.9929 107.874 39.527 106.567 38.2202C105.245 36.8989 104.055 36.6203 102.342 37.2311ZM111.865 37.1262C110.067 37.5883 109.72 37.9427 110.295 38.7283C110.553 39.0821 110.623 39.0834 111.428 38.747C113.202 38.0059 115.015 38.7231 115.015 40.1663C115.015 40.7513 114.981 40.7669 113.51 40.8722C110.893 41.0594 109.367 42.3208 109.367 44.2972C109.367 46.1616 110.423 47.1201 112.476 47.1201C113.357 47.1201 113.842 46.9902 114.417 46.6003L115.183 46.0804L115.426 46.6139C115.623 47.046 115.802 47.1344 116.369 47.0795L117.068 47.0115L116.998 43.3342C116.96 41.3115 116.834 39.406 116.718 39.0999C116.067 37.3779 114.061 36.5619 111.865 37.1262ZM122.926 37.2224C122.558 37.3825 122.048 37.794 121.792 38.1368L121.327 38.76L121.321 37.9457C121.314 37.141 121.304 37.1315 120.441 37.1315H119.568L119.626 42.0715L119.685 47.0115H120.554H121.422L121.537 43.8629C121.687 39.7713 122.14 38.8686 124.043 38.8686C124.525 38.8686 124.572 38.782 124.572 37.8915C124.572 37.0203 124.519 36.9152 124.083 36.9228C123.814 36.9276 123.293 37.0624 122.926 37.2224ZM136.878 37.2311C136.419 37.3949 135.815 37.7425 135.537 38.0037L135.031 38.4788L134.96 37.8595C134.898 37.3149 134.79 37.2318 134.071 37.1725L133.252 37.1047L133.31 42.0582L133.369 47.0115H134.238H135.107L135.215 43.6458C135.328 40.1545 135.46 39.6123 136.351 38.9883C136.9 38.6037 138.087 38.5457 138.7 38.8736C139.505 39.3044 139.659 39.973 139.774 43.5372L139.885 47.0115H140.754H141.623L141.619 43.3201C141.615 39.8951 141.579 39.5609 141.117 38.6895C140.76 38.015 140.363 37.6337 139.709 37.3371C138.636 36.85 138.012 36.8266 136.878 37.2311ZM147.18 37.0622C146.21 37.2637 145.018 38.2002 144.404 39.2438C143.856 40.1756 143.795 40.4807 143.795 42.2695C143.795 44.1352 143.836 44.3174 144.456 45.199C145.471 46.6448 146.481 47.1123 148.595 47.1166C150.752 47.121 151.724 46.8282 151.72 46.1759C151.714 45.3293 151.446 45.1334 150.667 45.4051C150.281 45.5395 149.337 45.6094 148.567 45.5603C147.4 45.4861 147.065 45.3712 146.535 44.864C146.186 44.53 145.805 43.8775 145.687 43.4139L145.473 42.5709L148.87 42.5112L152.266 42.4515L152.243 41.2301C152.198 38.9107 150.818 37.2413 148.791 37.0537C148.193 36.9983 147.469 37.0023 147.18 37.0622ZM157.696 37.2146C157.338 37.3751 156.849 37.726 156.61 37.9944L156.176 38.4823L156.066 37.8611C155.971 37.3234 155.847 37.2309 155.139 37.1725L154.321 37.1047L154.38 42.0582L154.438 47.0115H155.307H156.176L156.284 43.7544C156.352 41.7284 156.496 40.3167 156.666 40.0197C157.076 39.3031 157.816 38.8686 158.626 38.8686C159.344 38.8686 159.35 38.8604 159.284 37.9457C159.207 36.8933 158.817 36.7132 157.696 37.2146ZM162.515 37.2181C161.432 37.6185 160.917 38.1034 160.62 39.0041C160.1 40.5795 160.844 41.6661 163.255 42.8521C164.677 43.552 164.908 43.8786 164.665 44.8475C164.437 45.7534 163.204 45.8987 161.121 45.2648C160.729 45.1454 160.594 45.2283 160.415 45.6985C160.294 46.0183 160.194 46.3516 160.194 46.4391C160.194 46.7599 161.672 47.1201 162.988 47.1201C164.726 47.1201 165.966 46.5264 166.401 45.4857C167.166 43.6564 166.495 42.4026 164.146 41.2689C162.978 40.7054 162.533 40.3695 162.435 39.98C162.134 38.7809 163.358 38.139 164.893 38.691L165.869 39.0419L166.073 38.5069C166.184 38.2126 166.276 37.8839 166.276 37.7764C166.276 37.1406 163.743 36.7645 162.515 37.2181ZM44.6889 42.0715L44.7474 47.0115H45.942H47.1367L47.1951 42.0715L47.2535 37.1315H45.942H44.6305L44.6889 42.0715ZM83.5193 40.5786C83.5193 42.4745 83.5825 44.3422 83.66 44.7289C83.7374 45.1156 84.162 45.8118 84.6038 46.2761C85.374 47.0856 85.464 47.1201 86.7981 47.1192C88.2762 47.1184 89.4671 46.6176 89.7684 45.8702C89.8818 45.589 89.9496 45.6869 90.0325 46.2515C90.1353 46.9501 90.2102 47.017 90.9628 47.0791L91.7815 47.1468L91.7231 42.1933L91.6646 37.24L90.7415 37.1734L89.8184 37.1065V40.3869C89.8184 44.0277 89.6422 44.6918 88.5223 45.2707C87.0116 46.0517 85.8232 45.3432 85.4735 43.4534C85.3543 42.81 85.257 41.1243 85.257 39.7077V37.1315H84.3881H83.5193V40.5786ZM67.3285 38.7744C67.8166 39.094 68.3146 40.0905 68.3146 40.7467C68.3146 40.9753 67.787 41.0401 65.9253 41.0401C64.334 41.0401 63.536 40.9604 63.536 40.8014C63.536 40.2466 64.2871 39.0467 64.8134 38.7607C65.5708 38.3492 66.6888 38.3553 67.3285 38.7744ZM77.7808 39.0087C78.5059 39.4836 78.7407 40.2733 78.7407 42.2374C78.7407 44.0406 78.7302 44.0762 77.9733 44.8329C77.0299 45.776 75.9465 45.8687 74.8087 45.1039C73.6573 44.33 73.1955 42.3103 73.7757 40.5838C74.4069 38.7047 76.2252 37.9896 77.7808 39.0087ZM104.835 39.1146C106.418 40.2199 106.5 43.5696 104.978 44.9903C104.448 45.4854 104.127 45.6001 103.27 45.6001C102.351 45.6001 102.114 45.5006 101.446 44.8329C100.703 44.0898 100.679 44.0136 100.679 42.4228C100.679 41.3727 100.803 40.518 101.023 40.0542C101.755 38.5125 103.394 38.1084 104.835 39.1146ZM149.012 38.5581C149.56 38.7053 150.42 39.9311 150.42 40.5649C150.42 41.0251 150.344 41.0401 148.007 41.0401H145.594L145.737 40.4687C146.126 38.9199 147.461 38.1414 149.012 38.5581ZM16.4159 39.2373C17.6333 39.9563 18.0449 42.1158 17.284 43.7911C16.8153 44.8231 16.3114 45.1658 15.262 45.1658C13.8904 45.1658 13.1427 44.0303 13.1443 41.9488C13.1458 39.5346 14.7158 38.2335 16.4159 39.2373ZM115.232 42.8927C115.232 44.1574 114.697 45.1391 113.805 45.5117C112.872 45.9015 111.849 45.7438 111.538 45.1623C111.239 44.604 111.268 43.5852 111.596 43.1366C111.95 42.6534 113.375 42.1475 114.417 42.1353C115.207 42.126 115.232 42.1494 115.232 42.8927ZM32.475 43.1993C32.475 44.1513 31.803 45.1026 31.0632 45.1979C29.6265 45.3832 28.8218 44.3895 29.5314 43.3068C29.9663 42.6432 30.5671 42.3751 31.6605 42.3566C32.4663 42.3431 32.475 42.352 32.475 43.1993Z" fill="#6B7FA6"/>
<path fill-rule="evenodd" clip-rule="evenodd" d="M60.0059 0.081057C59.9164 0.170303 59.8434 5.93635 59.8434 12.8947V25.546L67.1742 25.6328C73.1351 25.7036 74.6877 25.784 75.4825 26.0632C77.1341 26.6434 78.089 27.0938 78.089 27.2927C78.089 27.5737 78.8149 27.466 79.0664 27.1476C79.1859 26.9965 80.0167 26.6098 80.9127 26.2882C82.539 25.7047 82.5548 25.7034 89.8743 25.6248L97.2069 25.546L97.1509 12.8042L97.0948 0.0623826L91.4474 0.0595597C88.3413 0.0582568 85.1066 0.127092 84.259 0.212863C82.2677 0.414373 80.4196 1.11445 79.3653 2.06684L78.5265 2.82446L77.7619 2.15326C75.7557 0.392225 74.6792 0.184852 66.7937 0.0402338C63.1495 -0.0266466 60.0951 -0.0081893 60.0059 0.081057ZM91.6618 6.38388L93.1223 6.23427L92.6292 7.05681C92.3579 7.50934 92.0054 8.03374 91.846 8.22244C91.4745 8.66151 91.4797 9.06974 91.867 9.85472C92.0382 10.2015 92.2435 10.7504 92.3232 11.0746L92.468 11.6642L91.061 11.274L89.6539 10.884L88.5958 11.8164C88.0137 12.3291 87.4644 12.7523 87.3747 12.7571C87.285 12.7616 87.209 12.1056 87.2057 11.2996L87.1994 9.83387L86.0111 9.11469C85.3573 8.71927 84.8225 8.31603 84.8225 8.21832C84.8225 8.12082 85.4005 7.82507 86.1071 7.56081C87.1362 7.17603 87.4194 6.96561 87.5311 6.50288C87.6075 6.1852 87.7735 5.53442 87.8997 5.0567L88.1291 4.18812L89.1652 5.3607L90.2012 6.53328L91.6618 6.38388ZM76.4708 7.3213C76.5978 7.44528 77.0946 7.44268 77.7632 7.31456C79.2461 7.02989 80.3747 7.25919 81.2429 8.02115C82.224 8.88235 82.5316 9.8532 82.2082 11.0683C81.4093 14.0697 77.4432 16.6505 73.6019 16.6687L72.4815 16.6739L71.6996 18.0958C71.2695 18.8779 70.6643 20.1239 70.3548 20.8644C69.466 22.9906 68.8154 23.4501 67.9883 22.5362C67.6382 22.1496 67.6247 21.9989 67.8671 21.179C68.0172 20.6718 68.6247 19.3433 69.2171 18.2265C70.0755 16.609 70.266 16.0666 70.1541 15.5576C69.9886 14.8041 70.3359 14.2853 71.0062 14.2853C71.3522 14.2853 71.6672 13.9366 72.2285 12.9321C72.6444 12.1879 73.0145 11.5113 73.0515 11.4288C73.0882 11.3463 72.8927 11.2468 72.617 11.2077C72.2319 11.1532 72.1003 10.9774 72.049 10.4499C71.9908 9.84972 72.1053 9.67861 72.957 9.09276C73.493 8.72405 74.0337 8.42243 74.1584 8.42243C74.2833 8.42243 74.537 8.12929 74.7222 7.771C74.9738 7.2846 75.212 7.11957 75.6619 7.11957C75.9933 7.11957 76.3574 7.21033 76.4708 7.3213ZM76.8943 9.52487C76.3494 9.68795 76.0472 10.0953 75.048 12.0164C74.391 13.2795 73.8208 14.4045 73.7811 14.5164C73.6759 14.8115 74.3788 14.7659 75.6221 14.3969C78.6576 13.4956 81.5218 10.3837 80.1683 9.45713C79.8514 9.2402 77.6976 9.28493 76.8943 9.52487Z" fill="#6B7FA6"/>
</svg>
