<svg width="117" height="43" viewBox="0 0 117 43" fill="none" xmlns="http://www.w3.org/2000/svg">
<path d="M84.2128 34.6601C84.2128 30.0131 81.816 27.5054 76.4766 27.5054C71.3962 27.5054 68.3241 29.7457 68.3241 35.0285C68.3241 40.3113 71.4241 42.3523 75.8698 42.3523H83.0931V38.674H76.9209C75.3239 38.674 74.4302 38.2401 74.1738 36.3H84.2102V34.6601H84.2128ZM74.1129 33.6914C74.3337 31.383 75.1665 30.8153 76.6061 30.8153C78.1726 30.8153 78.8429 31.5192 78.9698 33.6914H74.1129Z" fill="#6B7FA6"/>
<path d="M116.437 21.1831V42.3497H110.714V21.1831H116.437Z" fill="#6B7FA6"/>
<path d="M108.67 21.1831V25.6662H102.724V21.1831H108.67Z" fill="#6B7FA6"/>
<path d="M108.574 27.8379V42.3493H102.851V27.8379H108.574Z" fill="#6B7FA6"/>
<path d="M94.3781 33.8902C93.9287 35.2298 93.5454 36.8343 93.5454 36.8343C93.5454 36.8343 93.162 35.2298 92.7126 33.8902L90.5088 27.8379H84.4026L90.3793 42.3493H96.2011L102.147 27.8379H96.5845L94.3781 33.8902Z" fill="#6B7FA6"/>
<path d="M12.8861 29.344V42.3517H20.1068L14.3358 32.22C13.5107 30.8148 12.8861 29.344 12.8861 29.344ZM57.3607 21.7881H48.4008V0.459961H0.714417V8.57594C9.14877 9.59012 22.1253 9.45893 36.5719 3.2477C36.5719 3.2477 22.2929 11.1618 3.77638 12.3375C11.7766 12.5292 22.0872 11.3687 33.2788 6.55514C33.2788 6.55514 19.1141 15.6399 0.714417 16.9795V42.3517H7.50862V21.7881H14.0388L19.8098 31.887C20.5689 33.1913 21.1605 34.6621 21.1605 34.6621V21.7881H26.5354V42.3517H29.8665V37.8712H39.0346C40.2533 37.8712 41.1775 37.3363 41.1775 35.9664C41.1775 34.5284 40.3853 33.9608 39.1336 33.9608H35.5055C31.2858 33.9608 29.2724 31.5514 29.2724 27.9413C29.2724 24.2302 31.4153 21.7881 35.7365 21.7881H46.0903V26.2686H37.3843C36.0666 26.2686 35.2414 26.7379 35.2414 28.1759C35.2414 29.513 35.965 30.0806 37.2853 30.0806H41.0455C45.2017 30.0806 47.2125 32.3537 47.2125 36.1985C47.2125 40.0433 45.0697 42.3517 40.883 42.3517H57.3277C63.8172 42.3517 67.4606 38.9408 67.4606 32.0182C67.4631 24.8962 63.7867 21.7881 57.3607 21.7881ZM56.7539 37.9368H54.0677V26.2005H56.7539C60.2068 26.2005 61.2605 27.6032 61.2605 32.2528C61.2605 36.8999 60.0773 37.9368 56.7539 37.9368Z" fill="#6B7FA6"/>
<path d="M54.1137 10.1508V5.58447H55.8072C56.4343 5.58447 56.937 5.80396 57.3153 6.24546C57.6961 6.68443 57.884 7.22937 57.884 7.87521C57.884 8.52358 57.6885 9.06347 57.2975 9.4974C56.9065 9.93385 56.3454 10.1508 55.6193 10.1508H54.1137ZM54.9642 9.47974H55.6548C56.0255 9.47974 56.3378 9.34098 56.5968 9.06599C56.8557 8.78848 56.9827 8.37726 56.9827 7.8298C56.9827 7.38326 56.871 7.00736 56.645 6.69452C56.419 6.38674 56.1195 6.23032 55.7488 6.23032H54.9617V9.47974H54.9642Z" fill="#6B7FA6"/>
<path d="M62.1923 10.1508H59.204V5.58447H62.1593V6.26312H60.0317V7.50183H61.743V8.16282H60.0317V9.4419H62.1923V10.1508Z" fill="#6B7FA6"/>
<path d="M65.2263 10.1508H64.3808L62.9641 5.58447H63.84L64.8937 9.08365L65.9727 5.58447H66.6608L65.2263 10.1508Z" fill="#6B7FA6"/>
<path d="M70.7231 10.1508H67.7373V5.58447H70.6926V6.26312H68.565V7.50183H70.2763V8.16282H68.565V9.4419H70.7231V10.1508Z" fill="#6B7FA6"/>
<path d="M74.8187 10.1508H71.9928V5.58447H72.8637V9.40658H74.8187V10.1508Z" fill="#6B7FA6"/>
<path d="M77.5504 10.2266C76.941 10.2266 76.4637 9.99953 76.1235 9.54542C75.7833 9.08878 75.6157 8.53123 75.6157 7.86016C75.6157 7.19665 75.7934 6.6391 76.1565 6.19256C76.517 5.74602 76.9944 5.52148 77.5885 5.52148C78.1826 5.52148 78.6574 5.74349 79.0027 6.19256C79.348 6.6391 79.5231 7.19917 79.5231 7.87277C79.5231 8.57664 79.3429 9.14428 78.9824 9.57821C78.6218 10.0121 78.1445 10.2266 77.5504 10.2266ZM77.5555 9.5656C77.8525 9.5656 78.1064 9.44198 78.3121 9.19726C78.5203 8.95003 78.6218 8.50853 78.6218 7.86268C78.6218 7.33541 78.5355 6.92671 78.3654 6.62901C78.1953 6.33132 77.9312 6.18247 77.5707 6.18247C76.8623 6.18247 76.5094 6.75011 76.5094 7.88539C76.5094 8.43789 76.5983 8.85416 76.7811 9.13671C76.9588 9.42432 77.2178 9.5656 77.5555 9.5656Z" fill="#6B7FA6"/>
<path d="M81.6734 10.1508H80.8457V5.58447H82.7296C83.2653 5.58447 83.6639 5.71818 83.9229 5.98813C84.1819 6.25555 84.3114 6.57343 84.3114 6.93924C84.3114 7.35298 84.1717 7.69357 83.8899 7.9509C83.6081 8.21075 83.2552 8.33942 82.8235 8.33942H81.6734V10.1508ZM81.6734 7.63554H82.6534C82.9099 7.63554 83.1054 7.57499 83.2374 7.44633C83.3745 7.32271 83.4405 7.1562 83.4405 6.94933C83.4405 6.76264 83.377 6.60118 83.2526 6.46999C83.1282 6.33376 82.9022 6.26816 82.5773 6.26816H81.6709V7.63554H81.6734Z" fill="#6B7FA6"/>
<path d="M88.5163 10.1508H85.5305V5.58447H88.4859V6.26312H86.3582V7.50183H88.072V8.16282H86.3582V9.4419H88.5189V10.1508H88.5163Z" fill="#6B7FA6"/>
<path d="M93.3653 10.1508H92.4894L91.776 8.2713H90.6106V10.1508H89.7803V5.58447H91.776C92.3294 5.58447 92.7382 5.70809 92.9972 5.95785C93.2587 6.20509 93.3882 6.52801 93.3882 6.92158C93.3882 7.5094 93.1114 7.91305 92.5605 8.13254L93.3653 10.1508ZM90.6106 7.61536H91.6388C91.9384 7.61536 92.1593 7.55481 92.3066 7.42867C92.4513 7.30253 92.5249 7.13097 92.5249 6.91401C92.5249 6.71218 92.4539 6.55072 92.3091 6.4271C92.1644 6.30348 91.9638 6.24293 91.7074 6.24293H90.6106V7.61536Z" fill="#6B7FA6"/>
<path d="M95.4727 5.58447V6.33628L94.9573 7.23189H94.7085L95.0791 6.33628H94.7085V5.58447H95.4727Z" fill="#6B7FA6"/>
<path d="M96.4931 9.0581L97.3005 8.88655C97.3944 9.33813 97.7676 9.56519 98.41 9.56519C98.7045 9.56519 98.9305 9.50716 99.0904 9.39111C99.2478 9.27506 99.3265 9.13126 99.3265 8.95971C99.3265 8.83357 99.291 8.71752 99.2199 8.61156C99.1463 8.5056 98.9939 8.42234 98.7578 8.36432L97.8794 8.13726C97.5798 8.05905 97.3563 7.97076 97.2142 7.86984C97.0694 7.77145 96.9552 7.63017 96.8689 7.44853C96.7825 7.26941 96.7394 7.07515 96.7394 6.8708C96.7394 6.4621 96.8917 6.13413 97.1989 5.88941C97.5036 5.64217 97.8946 5.51855 98.3719 5.51855C98.7654 5.51855 99.1184 5.60433 99.4306 5.77588C99.7429 5.94744 99.941 6.18963 100.025 6.50499L99.2377 6.69924C99.1184 6.35361 98.834 6.17954 98.3897 6.17954C98.1307 6.17954 97.9352 6.23252 97.7981 6.341C97.661 6.44696 97.595 6.58319 97.595 6.7497C97.595 7.00955 97.8057 7.19372 98.2348 7.29716L99.0168 7.49142C99.4916 7.60999 99.8064 7.78406 99.9689 8.01617C100.131 8.24574 100.21 8.50055 100.21 8.78059C100.21 9.22965 100.04 9.58285 99.6998 9.84018C99.3595 10.1 98.9178 10.2262 98.377 10.2262C97.9225 10.2262 97.5214 10.1328 97.1811 9.94362C96.8333 9.7544 96.6073 9.45923 96.4931 9.0581Z" fill="#6B7FA6"/>
<path d="M55.9056 17.4341H55.0627L53.646 12.8652H54.5219L55.573 16.3669L56.6521 12.8652H57.3427L55.9056 17.4341Z" fill="#6B7FA6"/>
<path d="M59.2448 17.4341H58.4171V12.8652H59.2448V17.4341Z" fill="#6B7FA6"/>
<path d="M63.6371 17.4341H60.8087V12.8652H61.6796V16.6873H63.6371V17.4341Z" fill="#6B7FA6"/>
<path d="M67.6255 17.4341H64.7972V12.8652H65.6706V16.6873H67.6255V17.4341Z" fill="#6B7FA6"/>
<path d="M72.3963 17.4341H71.5103L71.1421 16.3442H69.375L69.0145 17.4341H68.3087L69.832 12.8652H70.8527L72.3963 17.4341ZM70.9187 15.6858L70.2484 13.6473L69.5781 15.6858H70.9187Z" fill="#6B7FA6"/>
<path d="M76.829 15.1032V17.4368H76.4634L76.2095 16.8212C75.9429 17.2804 75.5291 17.5074 74.968 17.5074C74.3409 17.5074 73.8737 17.2728 73.5665 16.7985C73.2593 16.3242 73.1019 15.7768 73.1019 15.1561C73.1019 14.5002 73.2771 13.9401 73.6198 13.4835C73.9651 13.0269 74.4475 12.7998 75.067 12.7998C75.5291 12.7998 75.9099 12.9335 76.2095 13.2009C76.5066 13.4658 76.697 13.7988 76.7757 14.1949L76.0547 14.3211C75.9201 13.7635 75.5951 13.486 75.0873 13.486C74.7598 13.486 74.4958 13.6172 74.2901 13.8796C74.087 14.1445 73.9829 14.5481 73.9829 15.0956C73.9829 16.2485 74.346 16.8263 75.0746 16.8263C75.359 16.8263 75.5926 16.7279 75.7754 16.5361C75.9633 16.3419 76.0547 16.0845 76.0547 15.7667H75.1051V15.1032H76.829Z" fill="#6B7FA6"/>
<path d="M81.3054 17.4341H78.3196V12.8652H81.275V13.5439H79.1473V14.7826H80.8586V15.4436H79.1473V16.7227H81.3054V17.4341Z" fill="#6B7FA6"/>
</svg>
