<svg width="290" height="32" viewBox="0 0 290 32" fill="none" xmlns="http://www.w3.org/2000/svg">
<path d="M143.243 20.314L139 16.07L140.414 14.656L143.243 17.484L148.899 11.827L150.314 13.242L143.243 20.314Z" fill="#4D5F80"/>
<path fill-rule="evenodd" clip-rule="evenodd" d="M134 16C134 9.925 138.925 5 145 5C151.075 5 156 9.925 156 16C156 22.075 151.075 27 145 27C138.925 27 134 22.075 134 16ZM145 25C143.818 25 142.648 24.7672 141.556 24.3149C140.464 23.8626 139.472 23.1997 138.636 22.364C137.8 21.5282 137.137 20.5361 136.685 19.4442C136.233 18.3522 136 17.1819 136 16C136 14.8181 136.233 13.6478 136.685 12.5558C137.137 11.4639 137.8 10.4718 138.636 9.63604C139.472 8.80031 140.464 8.13738 141.556 7.68508C142.648 7.23279 143.818 7 145 7C147.387 7 149.676 7.94821 151.364 9.63604C153.052 11.3239 154 13.6131 154 16C154 18.3869 153.052 20.6761 151.364 22.364C149.676 24.0518 147.387 25 145 25Z" fill="#4D5F80"/>
</svg>
