<svg width="22" height="22" viewBox="0 0 22 22" fill="none" xmlns="http://www.w3.org/2000/svg">
<path d="M17.4632 4.4991C16.6228 3.6502 15.6218 2.97713 14.5186 2.51914C13.4153 2.06116 12.2319 1.82744 11.0374 1.8316C6.03238 1.8316 1.95322 5.91076 1.95322 10.9158C1.95322 12.5199 2.37488 14.0783 3.16322 15.4533L1.87988 20.1649L6.69238 18.8999C8.02155 19.6241 9.51572 20.0091 11.0374 20.0091C16.0424 20.0091 20.1216 15.9299 20.1216 10.9249C20.1216 8.49576 19.1774 6.21326 17.4632 4.4991ZM11.0374 18.4691C9.68072 18.4691 8.35155 18.1024 7.18738 17.4149L6.91238 17.2499L4.05238 18.0016L4.81322 15.2149L4.62988 14.9308C3.87615 13.7272 3.47593 12.3359 3.47488 10.9158C3.47488 6.7541 6.86655 3.36243 11.0282 3.36243C13.0449 3.36243 14.9424 4.15076 16.3632 5.58076C17.0667 6.28106 17.6243 7.11404 18.0035 8.0314C18.3827 8.94877 18.5761 9.93228 18.5724 10.9249C18.5907 15.0866 15.1991 18.4691 11.0374 18.4691ZM15.1807 12.8224C14.9516 12.7124 13.8332 12.1624 13.6316 12.0799C13.4207 12.0066 13.2741 11.9699 13.1182 12.1899C12.9624 12.4191 12.5316 12.9324 12.4032 13.0791C12.2749 13.2349 12.1374 13.2533 11.9082 13.1341C11.6791 13.0241 10.9457 12.7766 10.0841 12.0066C9.40572 11.4016 8.95655 10.6591 8.81905 10.4299C8.69072 10.2008 8.80072 10.0816 8.91988 9.96243C9.02072 9.8616 9.14905 9.6966 9.25905 9.56826C9.36905 9.43993 9.41488 9.3391 9.48822 9.19243C9.56155 9.0366 9.52488 8.90826 9.46988 8.79826C9.41488 8.68826 8.95655 7.56993 8.77322 7.1116C8.58988 6.6716 8.39738 6.7266 8.25988 6.71743H7.81988C7.66405 6.71743 7.42572 6.77243 7.21488 7.0016C7.01322 7.23076 6.42655 7.78076 6.42655 8.8991C6.42655 10.0174 7.24238 11.0991 7.35238 11.2458C7.46238 11.4016 8.95655 13.6933 11.2299 14.6741C11.7707 14.9124 12.1924 15.0499 12.5224 15.1508C13.0632 15.3249 13.5582 15.2974 13.9524 15.2424C14.3924 15.1783 15.2999 14.6924 15.4832 14.1608C15.6757 13.6291 15.6757 13.1799 15.6116 13.0791C15.5474 12.9783 15.4099 12.9324 15.1807 12.8224Z" fill="white"/>
</svg>
