<svg width="108" height="42" viewBox="0 0 108 42" fill="none" xmlns="http://www.w3.org/2000/svg">
<g clip-path="url(#clip0_11_631)">
<path d="M33.1291 9.25928H21.5012C21.0067 9.25928 20.6059 9.66011 20.6059 10.1546V17.3097C20.6059 17.8041 21.0067 18.205 21.5012 18.205H33.1291C33.6236 18.205 34.0244 17.8041 34.0244 17.3097V10.1546C34.0244 9.66011 33.6236 9.25928 33.1291 9.25928Z" fill="#3C52A4"/>
<path d="M33.1291 20.8193H12.5555C12.061 20.8193 11.6602 21.2202 11.6602 21.7146V28.8697C11.6602 29.3642 12.061 29.765 12.5555 29.765H33.1291C33.6236 29.765 34.0244 29.3642 34.0244 28.8697V21.7146C34.0244 21.2202 33.6236 20.8193 33.1291 20.8193Z" fill="#FCB352"/>
<path d="M33.1292 32.2285H3.60982C3.11537 32.2285 2.71454 32.6293 2.71454 33.1238V40.2789C2.71454 40.7734 3.11537 41.1742 3.60982 41.1742H33.1292C33.6236 41.1742 34.0244 40.7734 34.0244 40.2789V33.1238C34.0244 32.6293 33.6236 32.2285 33.1292 32.2285Z" fill="#2E3F7F"/>
<path d="M46.3758 12.0204H42.5547V4.19922H40.1983V14.2228H46.3758V12.0204Z" fill="#3C4860"/>
<path d="M49.5737 9.5742C48.8601 9.53675 48.1572 9.76084 47.5969 10.2045C47.3636 10.4239 47.1814 10.6919 47.0632 10.9896C46.945 11.2873 46.8937 11.6073 46.9129 11.927C46.9039 12.3582 47.001 12.7849 47.1958 13.1697C47.3798 13.5287 47.6632 13.8271 48.0124 14.0291C48.4033 14.2483 48.8464 14.3573 49.2944 14.3443C49.8307 14.3612 50.3598 14.2165 50.8128 13.9289C51.0389 13.7767 51.2344 13.5836 51.3894 13.3595V14.2404H53.6383V9.22683C53.6573 8.84538 53.5956 8.46421 53.4574 8.10818C53.3192 7.75215 53.1075 7.42924 52.8361 7.16051C52.2101 6.6356 51.4062 6.37148 50.5908 6.42279C50.2197 6.42322 49.8493 6.45678 49.4842 6.52307C49.1183 6.59007 48.7589 6.68831 48.4099 6.81672C48.0439 6.95309 47.6853 7.10849 47.3355 7.28227L47.9873 8.93317C48.3372 8.73449 48.7084 8.57592 49.0939 8.46046C49.4109 8.36292 49.7399 8.30989 50.0715 8.30289C50.4305 8.27583 50.786 8.38877 51.0635 8.61803C51.1778 8.7319 51.2668 8.86856 51.3248 9.0191C51.3828 9.16965 51.4085 9.33072 51.4001 9.49183V9.5742H49.5737ZM51.1244 12.1275C50.9902 12.2827 50.8224 12.4052 50.6337 12.4857C50.4328 12.5733 50.2155 12.6173 49.9963 12.6146C49.7427 12.6302 49.4931 12.5452 49.3016 12.3782C49.2185 12.2921 49.154 12.1897 49.1121 12.0776C49.0702 11.9655 49.0518 11.846 49.058 11.7265C49.0474 11.6138 49.0636 11.5002 49.1053 11.395C49.147 11.2898 49.213 11.196 49.298 11.1212C49.5084 10.9787 49.7606 10.9106 50.0142 10.9279H51.3786V11.5832C51.3405 11.783 51.2531 11.9701 51.1244 12.1275Z" fill="#3C4860"/>
<path d="M57.3341 13.2127C57.4947 13.4488 57.6931 13.6569 57.9214 13.8286C58.3616 14.1553 58.899 14.3243 59.4469 14.3085C60.0471 14.3241 60.6374 14.154 61.1372 13.8215C61.6294 13.4793 62.0134 13.0033 62.2438 12.4499C62.5168 11.8034 62.651 11.1067 62.6377 10.4051C62.6542 9.68121 62.5163 8.96215 62.2331 8.29578C61.9869 7.73644 61.5886 7.25748 61.0835 6.91346C60.5807 6.57799 59.9868 6.40544 59.3825 6.41927C58.8454 6.41059 58.3213 6.58487 57.8963 6.91346C57.6773 7.08057 57.4873 7.28263 57.3341 7.51151V3.61523H55.0457V14.2226H57.3341V13.2127ZM57.5203 9.31283C57.6307 9.03947 57.8141 8.80164 58.0503 8.62525C58.2698 8.45958 58.5381 8.37142 58.8131 8.37457C59.0973 8.36858 59.3755 8.45671 59.6045 8.62525C59.8418 8.8036 60.0252 9.04402 60.1345 9.31999C60.3824 9.97413 60.3824 10.6964 60.1345 11.3505C60.0251 11.6254 59.8417 11.8647 59.6045 12.0417C59.3772 12.2023 59.1057 12.2885 58.8274 12.2885C58.5491 12.2885 58.2776 12.2023 58.0503 12.0417C57.8107 11.8657 57.6267 11.6245 57.5203 11.3469C57.3905 11.0226 57.3271 10.6755 57.3341 10.3263C57.3267 9.97933 57.3901 9.63451 57.5203 9.31283Z" fill="#3C4860"/>
<path d="M47.4429 25.568H42.5547V23.6234H46.8521V21.5786H42.5547V19.6627H47.314V17.6035H40.1983V27.6271H47.4429V25.568Z" fill="#3C4860"/>
<path d="M48.6605 17.6035V27.6307H51.0133V24.8374H52.6213C53.7744 24.8374 54.6673 24.5115 55.3 23.8598C55.9326 23.208 56.2501 22.2948 56.2525 21.1202C56.2814 20.6457 56.2117 20.1703 56.0478 19.7241C55.8838 19.2778 55.6292 18.8704 55.3 18.5275C54.6673 17.9115 53.7744 17.6035 52.6213 17.6035H48.6605ZM54.0107 21.1847C54.0433 21.617 53.9029 22.0446 53.6204 22.3736C53.4715 22.512 53.2959 22.6186 53.1045 22.687C52.913 22.7553 52.7096 22.7839 52.5067 22.7711H51.0133V19.6627H52.5067C52.7121 19.6391 52.9202 19.6627 53.1151 19.7317C53.31 19.8006 53.4867 19.913 53.6317 20.0604C53.7766 20.2078 53.8861 20.3863 53.9518 20.5823C54.0175 20.7784 54.0377 20.9868 54.0107 21.1918V21.1847Z" fill="#3C4860"/>
<path d="M63.8732 26.3736C64.2093 25.8688 64.3796 25.2716 64.3603 24.6654C64.3747 24.2135 64.2865 23.7641 64.1024 23.3511C63.9441 23.0155 63.7114 22.7203 63.422 22.4881C63.1378 22.2699 62.8259 22.0905 62.4945 21.9545C62.1624 21.8162 61.8229 21.6966 61.4774 21.5964C61.1193 21.4925 60.8221 21.3851 60.5392 21.2812C60.2895 21.1965 60.0594 21.0625 59.8624 20.8873C59.7803 20.8098 59.7156 20.7158 59.6724 20.6115C59.6292 20.5072 59.6085 20.3949 59.6117 20.2821C59.6042 20.1758 59.624 20.0694 59.6691 19.9729C59.7142 19.8764 59.7832 19.793 59.8695 19.7306C60.0728 19.603 60.3102 19.5405 60.5499 19.5516C60.8447 19.5588 61.1372 19.6046 61.4201 19.6876C61.7713 19.7809 62.1149 19.9006 62.4479 20.0457C62.8026 20.2002 63.1409 20.3897 63.4578 20.6116L64.3459 18.5524C63.285 17.824 62.0302 17.4299 60.7433 17.4208C60.0906 17.4081 59.4429 17.5376 58.8453 17.8004C58.3226 18.0258 57.8802 18.4039 57.576 18.8851C57.2718 19.3663 57.1201 19.9281 57.1407 20.497C57.1275 20.9388 57.2131 21.3781 57.3914 21.7826C57.5467 22.111 57.7789 22.3972 58.0682 22.617C58.3537 22.8342 58.6668 23.0124 58.9993 23.147C59.3321 23.2833 59.6716 23.4028 60.0163 23.5051C60.3566 23.6054 60.6681 23.7093 60.951 23.8131C61.2014 23.8987 61.4325 24.0326 61.6314 24.207C61.7157 24.2832 61.7824 24.3768 61.8269 24.4813C61.8714 24.5858 61.8927 24.6987 61.8893 24.8122C61.8968 24.9373 61.8733 25.0622 61.8208 25.1759C61.7683 25.2896 61.6885 25.3886 61.5885 25.464C61.3419 25.6238 61.0511 25.7015 60.7576 25.686C60.3976 25.677 60.0411 25.6118 59.7012 25.4927C59.2924 25.3569 58.8997 25.1768 58.5302 24.9555C58.1526 24.7312 57.8028 24.4632 57.4881 24.1569L56.582 26.1552C56.9502 26.4927 57.3592 26.7826 57.7996 27.0182C58.252 27.2634 58.7332 27.4511 59.2321 27.5769C59.7256 27.705 60.2334 27.77 60.7433 27.7703C61.37 27.775 61.9912 27.6532 62.5697 27.4122C63.0932 27.1953 63.5449 26.8354 63.8732 26.3736Z" fill="#3C4860"/>
<path d="M70.9209 27.6271H73.2773V19.72H75.9775V17.6035H68.2458V19.72H70.9209V27.6271Z" fill="#3C4860"/>
<path d="M85.3529 20.5579C85.1201 19.9497 84.771 19.3926 84.3251 18.9178C83.888 18.4596 83.3631 18.0942 82.7816 17.8434C81.8768 17.4482 80.8727 17.3393 79.9041 17.5314C78.9356 17.7234 78.049 18.2072 77.3634 18.9178C76.9163 19.3916 76.5671 19.949 76.3356 20.5579C76.0886 21.2097 75.9671 21.9023 75.9775 22.5992C75.9665 23.3043 76.088 24.0052 76.3356 24.6655C76.5645 25.2765 76.9099 25.8371 77.3526 26.3164C77.7977 26.7945 78.3364 27.1757 78.9353 27.4364C79.5342 27.6971 80.1804 27.8317 80.8335 27.8317C81.4867 27.8317 82.1328 27.6971 82.7317 27.4364C83.3306 27.1757 83.8693 26.7945 84.3144 26.3164C84.7617 25.836 85.1108 25.2727 85.3422 24.6583C85.5897 23.998 85.7112 23.2971 85.7003 22.592C85.7144 21.8981 85.5966 21.2078 85.3529 20.5579ZM83.1147 23.781C83.0013 24.1287 82.8253 24.4527 82.5954 24.7371C82.381 25.0003 82.1154 25.2171 81.8147 25.3746C81.5232 25.5274 81.1985 25.6061 80.8693 25.6038C80.538 25.605 80.2113 25.5264 79.9167 25.3746C79.6122 25.2168 79.342 25.0001 79.1217 24.7371C78.8837 24.4547 78.7003 24.1305 78.581 23.781C78.4499 23.4009 78.3845 23.0012 78.3876 22.5992C78.3833 22.1982 78.4487 21.7996 78.581 21.421C78.7002 21.0773 78.881 20.7581 79.1146 20.4792C79.332 20.2137 79.6045 19.9987 79.9132 19.8489C80.2108 19.703 80.5379 19.6271 80.8693 19.6268C81.1975 19.6255 81.5214 19.7016 81.8147 19.8489C82.1168 20.0011 82.3829 20.216 82.5954 20.4792C82.8245 20.7588 83.0005 21.078 83.1147 21.421C83.2428 21.8004 83.3058 22.1988 83.3009 22.5992C83.3054 23.0031 83.2425 23.4049 83.1147 23.7881V23.781Z" fill="#3C4860"/>
<path d="M89.1704 24.8374H90.7783C91.9314 24.8374 92.8243 24.5115 93.457 23.8598C94.0896 23.208 94.4072 22.2948 94.4096 21.1202C94.4385 20.6457 94.3688 20.1703 94.2048 19.7241C94.0409 19.2778 93.7862 18.8704 93.457 18.5275C92.8243 17.9115 91.9314 17.6035 90.7783 17.6035H86.8032V27.6307H89.1704V24.8374ZM91.7774 20.0494C91.9169 20.2033 92.0237 20.3839 92.0914 20.5803C92.1591 20.7766 92.1863 20.9847 92.1714 21.1918C92.2029 21.6247 92.0612 22.0524 91.7774 22.3808C91.6285 22.5192 91.453 22.6258 91.2615 22.6942C91.07 22.7625 90.8666 22.7911 90.6637 22.7783H89.1704V19.6627H90.6637C90.8634 19.6518 91.0632 19.6803 91.2519 19.7467C91.4405 19.813 91.6142 19.9159 91.7631 20.0494H91.7774Z" fill="#3C4860"/>
<path d="M97.7507 17.6035H95.3979V27.6271H97.7507V17.6035Z" fill="#3C4860"/>
<path d="M104.437 21.7326L107.792 17.6035H105.063L101.683 22.0083V17.6035H99.3265V27.6271H101.683V25.1239L102.825 23.7165L105.182 27.6271H108L104.437 21.7326Z" fill="#3C4860"/>
<path d="M42.5511 31.0073H40.1983V41.0309H42.5511V31.0073Z" fill="#3C4860"/>
<path d="M50.0787 33.5609C49.6789 33.3145 49.2159 33.19 48.7465 33.2028C48.2029 33.1864 47.6687 33.3473 47.2245 33.6612C46.8979 33.899 46.6307 34.2091 46.4438 34.5672V33.3102H44.1555V41.0312H46.4438V37.0167C46.4565 36.6314 46.5809 36.2582 46.8019 35.9424C46.9168 35.7827 47.0687 35.6533 47.2446 35.5653C47.4205 35.4774 47.6152 35.4335 47.8118 35.4374C47.9747 35.4319 48.1368 35.4635 48.2857 35.5299C48.4346 35.5963 48.5665 35.6957 48.6713 35.8206C48.8999 36.1196 49.0142 36.4905 48.9936 36.8663V41.0276H51.2712V36.1537C51.2851 35.6157 51.1799 35.0813 50.9632 34.5887C50.7773 34.1657 50.4693 33.8078 50.0787 33.5609Z" fill="#3C4860"/>
<path d="M57.5919 34.3203C57.4289 34.0796 57.2282 33.8668 56.9974 33.69C56.5603 33.3626 56.0249 33.1934 55.479 33.2101C54.8835 33.1995 54.2989 33.3706 53.8031 33.7007C53.3072 34.0411 52.9184 34.5156 52.6822 35.0687C52.4063 35.7194 52.272 36.4213 52.2882 37.1279C52.272 37.8479 52.4087 38.5631 52.6893 39.2264C52.9253 39.7925 53.3179 40.2795 53.821 40.6302C54.3269 40.968 54.9246 41.1418 55.5328 41.128C56.0723 41.1422 56.6004 40.9716 57.0297 40.6446C57.2464 40.4722 57.4359 40.2681 57.5919 40.0394V41.0313H59.8803V30.4204H57.5919V34.3203ZM57.4021 38.2201C57.2934 38.4915 57.1141 38.7289 56.8828 38.9077C56.6558 39.0742 56.3801 39.1611 56.0986 39.1548C55.8149 39.1605 55.5372 39.0738 55.3071 38.9077C55.0717 38.7305 54.8885 38.4929 54.7771 38.2201C54.6477 37.8957 54.5844 37.5487 54.5909 37.1995C54.5851 36.8469 54.6484 36.4965 54.7771 36.1681C54.8857 35.8947 55.0694 35.6575 55.3071 35.4841C55.5376 35.3193 55.8153 35.2339 56.0986 35.2406C56.3797 35.2333 56.6553 35.3189 56.8828 35.4841C57.1163 35.6593 57.2962 35.8962 57.4021 36.1681C57.5338 36.4957 57.5984 36.8465 57.5919 37.1995C57.5991 37.5491 57.5345 37.8965 57.4021 38.2201Z" fill="#3C4860"/>
<path d="M66.8384 33.7075C66.2189 33.3898 65.5327 33.2241 64.8365 33.2241C64.1404 33.2241 63.4542 33.3898 62.8347 33.7075C62.27 34.029 61.81 34.5065 61.5097 35.0827C61.1855 35.7249 61.0244 36.437 61.0405 37.1561C61.0253 37.8775 61.1863 38.5917 61.5097 39.2368C61.8097 39.816 62.2695 40.297 62.8347 40.6227C63.4519 40.9476 64.139 41.1174 64.8365 41.1174C65.5341 41.1174 66.2212 40.9476 66.8384 40.6227C67.4048 40.2963 67.8669 39.8157 68.1706 39.2368C68.4979 38.5929 68.6615 37.8783 68.6469 37.1561C68.6624 36.4362 68.4988 35.7237 68.1706 35.0827C67.8665 34.5068 67.4043 34.0297 66.8384 33.7075ZM66.1544 38.2197C66.0451 38.4908 65.8629 38.7263 65.628 38.9002C65.3965 39.0629 65.1195 39.1481 64.8365 39.1437C64.5557 39.1494 64.2805 39.0639 64.0523 38.9002C63.8203 38.7241 63.6398 38.4892 63.5294 38.2197C63.4 37.8953 63.3367 37.5483 63.3432 37.1991C63.3374 36.8465 63.4007 36.4961 63.5294 36.1677C63.6378 35.8962 63.8187 35.6596 64.0523 35.4837C64.2798 35.3185 64.5555 35.2329 64.8365 35.2402C65.1197 35.234 65.3973 35.3194 65.628 35.4837C65.8646 35.6573 66.0472 35.8945 66.1544 36.1677C66.2849 36.4956 66.3482 36.8463 66.3406 37.1991C66.3489 37.5485 66.2856 37.8958 66.1544 38.2197Z" fill="#3C4860"/>
<path d="M75.6659 33.561C75.2672 33.3151 74.8055 33.1906 74.3373 33.2029C73.7924 33.1858 73.2569 33.3467 72.8117 33.6613C72.486 33.9 72.219 34.2099 72.031 34.5673V33.3103H69.7427V41.0313H72.031V37.0168C72.0437 36.6315 72.1681 36.2583 72.3891 35.9425C72.506 35.7816 72.6604 35.6519 72.8389 35.5645C73.0175 35.4771 73.2147 35.4347 73.4133 35.4411C73.5769 35.435 73.7397 35.4664 73.8892 35.5328C74.0388 35.5992 74.1712 35.6989 74.2764 35.8243C74.505 36.1233 74.6193 36.4942 74.5987 36.87V41.0313H76.8763V36.1538C76.8884 35.6159 76.7833 35.0819 76.5683 34.5888C76.3759 34.1644 76.0618 33.8067 75.6659 33.561Z" fill="#3C4860"/>
<path d="M83.5337 33.772C82.9332 33.3778 82.2245 33.1813 81.5067 33.2097C80.8389 33.1969 80.1802 33.3665 79.6016 33.7004C79.0516 34.03 78.6098 34.5128 78.3303 35.0898C78.0164 35.7427 77.8618 36.4606 77.879 37.1848C77.8631 37.8966 78.0152 38.602 78.3231 39.244C78.6032 39.8159 79.0453 40.2929 79.5944 40.6155C80.1934 40.9502 80.871 41.1183 81.5569 41.1026C82.1574 41.1124 82.7528 40.9901 83.3009 40.7445C83.8024 40.5128 84.2445 40.1699 84.5937 39.7417L83.3976 38.4275C83.1989 38.6692 82.9498 38.8646 82.6678 39.0001C82.3857 39.1356 82.0775 39.2078 81.7646 39.2117C81.4509 39.2181 81.143 39.1268 80.8836 38.9503C80.6205 38.7604 80.4168 38.4995 80.2963 38.1983C80.2526 38.0814 80.2167 37.9618 80.1889 37.8402H85.0198C85.0839 37.0141 84.9816 36.1836 84.719 35.3978C84.5042 34.745 84.0895 34.1762 83.5337 33.772ZM80.1352 36.4829C80.1616 36.305 80.2048 36.1299 80.2641 35.9601C80.3636 35.6833 80.5326 35.4367 80.7547 35.2438C80.9692 35.0648 81.2418 34.9705 81.5211 34.9788C81.7611 34.9735 81.9976 35.0382 82.2015 35.165C82.4012 35.2903 82.5604 35.4706 82.6599 35.6843C82.7717 35.9388 82.822 36.2161 82.8067 36.4936L80.1352 36.4829Z" fill="#3C4860"/>
<path d="M88.6654 34.9398C89.0087 34.9486 89.3479 35.0164 89.6681 35.1403C90.088 35.293 90.4932 35.4836 90.8786 35.7097L91.6521 34.0803C91.2212 33.7851 90.7461 33.5603 90.2447 33.4142C89.757 33.2665 89.2502 33.1917 88.7406 33.1922C88.2387 33.1817 87.7404 33.2794 87.2795 33.4787C86.8701 33.6577 86.5181 33.9465 86.2625 34.3131C86.001 34.7138 85.8685 35.1849 85.8829 35.6631C85.8622 36.0166 85.9367 36.3692 86.0985 36.6841C86.2604 36.999 86.5038 37.2648 86.8032 37.4537C87.0739 37.6315 87.3664 37.7735 87.6734 37.8763C87.9814 37.9837 88.2715 38.0768 88.5472 38.1556C88.7827 38.2195 89.0081 38.316 89.2169 38.4421C89.2951 38.4851 89.3603 38.5484 89.4057 38.6253C89.451 38.7021 89.4749 38.7898 89.4748 38.879C89.4793 38.981 89.4447 39.0809 89.3781 39.1583C89.3078 39.2338 89.2188 39.2893 89.1202 39.3195C88.998 39.3607 88.8695 39.3801 88.7406 39.3768C88.3218 39.3705 87.9078 39.2868 87.5195 39.1297C87.0721 38.9491 86.6516 38.7081 86.2696 38.4135L85.5534 40.0286C85.9822 40.39 86.4755 40.6671 87.0074 40.8451C87.5515 41.0246 88.121 41.1153 88.6941 41.1136C89.2154 41.1242 89.7333 41.0279 90.2161 40.8307C90.6387 40.6555 91.0017 40.362 91.2617 39.9856C91.5214 39.5867 91.6538 39.1184 91.6413 38.6427C91.6543 38.2564 91.5654 37.8735 91.3835 37.5325C91.2199 37.242 90.9875 36.996 90.7067 36.8163C90.4307 36.6412 90.135 36.4994 89.8257 36.3937L88.9447 36.1C88.7076 36.0281 88.4784 35.9321 88.2608 35.8136C88.1837 35.7774 88.1183 35.7202 88.0721 35.6487C88.0258 35.5771 88.0006 35.4941 87.9993 35.4089C87.9935 35.3347 88.0078 35.2604 88.0405 35.1936C88.0733 35.1269 88.1234 35.0701 88.1855 35.0293C88.3328 34.9516 88.5001 34.9204 88.6654 34.9398Z" fill="#3C4860"/>
<path d="M95.1258 33.3101H92.8482V41.031H95.1258V33.3101Z" fill="#3C4860"/>
<path d="M93.9906 29.7647C93.8288 29.7578 93.6674 29.7862 93.5178 29.8481C93.3681 29.9099 93.2337 30.0037 93.124 30.1228C92.8847 30.387 92.7564 30.7333 92.7659 31.0897C92.7577 31.4405 92.8861 31.7807 93.124 32.0387C93.2346 32.1586 93.3689 32.2543 93.5184 32.3197C93.6678 32.3852 93.8292 32.419 93.9924 32.419C94.1556 32.419 94.317 32.3852 94.4664 32.3197C94.6159 32.2543 94.7502 32.1586 94.8608 32.0387C95.0906 31.777 95.2122 31.4378 95.201 31.0897C95.2136 30.736 95.0921 30.3907 94.8608 30.1228C94.7503 30.0038 94.6152 29.9102 94.465 29.8483C94.3148 29.7865 94.1529 29.758 93.9906 29.7647Z" fill="#3C4860"/>
<path d="M99.8851 33.1959C99.5139 33.1945 99.1434 33.2281 98.7786 33.2961C98.4128 33.3619 98.0534 33.4589 97.7042 33.5862C97.3461 33.7151 96.988 33.8727 96.6299 34.0518L97.2602 35.7385C97.6109 35.5423 97.9819 35.385 98.3667 35.2693C98.6834 35.1702 99.0126 35.1171 99.3444 35.1118C99.7033 35.0847 100.059 35.1976 100.336 35.4269C100.451 35.5398 100.54 35.6758 100.598 35.8258C100.656 35.9759 100.682 36.1365 100.673 36.2971V36.3831H98.8573C98.1435 36.344 97.44 36.5682 96.8806 37.0134C96.6473 37.2315 96.4649 37.4982 96.3461 37.7946C96.2273 38.091 96.175 38.4099 96.193 38.7287C96.1842 39.1598 96.2813 39.5865 96.4759 39.9714C96.6621 40.3288 96.945 40.6266 97.2924 40.8308C97.6842 41.0473 98.1269 41.1549 98.5744 41.1424C99.1104 41.1607 99.6395 41.0172 100.093 40.7306C100.32 40.5747 100.517 40.378 100.673 40.1504V41.0314H102.922V35.9963C102.941 35.6149 102.879 35.2338 102.741 34.8778C102.603 34.5218 102.391 34.1989 102.12 33.93C101.496 33.409 100.696 33.1463 99.8851 33.1959ZM100.419 38.9257C100.285 39.0811 100.117 39.2036 99.9281 39.2838C99.7272 39.3714 99.5099 39.4154 99.2907 39.4127C99.037 39.4283 98.7874 39.3434 98.5959 39.1764C98.5126 39.0911 98.4479 38.9895 98.406 38.8779C98.3641 38.7663 98.3458 38.6472 98.3524 38.5282C98.3412 38.4149 98.3571 38.3006 98.3988 38.1948C98.4405 38.0889 98.5069 37.9945 98.5923 37.9194C98.8028 37.7768 99.0549 37.7087 99.3086 37.726H100.673V38.3849C100.636 38.5872 100.549 38.7769 100.419 38.9364V38.9257Z" fill="#3C4860"/>
<path d="M8.15067 6.38374C8.15555 6.6762 8.09945 6.96647 7.98593 7.23605C7.6209 7.91016 7.07719 8.47066 6.4145 8.85602C5.7518 9.24138 4.99574 9.4367 4.22932 9.42055C3.66696 9.43358 3.10815 9.32808 2.58925 9.11089C2.07035 8.89371 1.603 8.56971 1.21758 8.15999C0.822629 7.76039 0.511479 7.28592 0.302392 6.76443C0.0933047 6.24294 -0.00950645 5.68494 -7.32212e-06 5.12318C-0.00126845 4.98926 0.00470883 4.85537 0.0178984 4.72209C0.196095 5.19903 0.515298 5.61041 0.933036 5.90148C1.35077 6.19256 1.84724 6.34953 2.35638 6.35151C2.77201 6.35074 3.18128 6.24936 3.54922 6.05604C3.91716 5.86271 4.23282 5.58319 4.46925 5.24136C4.64746 4.96488 4.89409 4.73914 5.18522 4.58605C5.47636 4.43295 5.80212 4.35769 6.1309 4.36756C6.6648 4.3713 7.17583 4.5848 7.5537 4.962C7.93157 5.3392 8.14598 5.84985 8.15067 6.38374Z" fill="#3C52A4"/>
<path d="M8.51236 5.12317C8.51236 5.27358 8.51236 5.41682 8.49445 5.56365C8.31945 5.07704 8.00004 4.65548 7.57894 4.35533C7.15784 4.05519 6.65514 3.89078 6.13806 3.88409H6.08793C5.68741 3.88341 5.29308 3.983 4.94092 4.17378C4.58875 4.36456 4.28994 4.64047 4.07175 4.97634C3.87941 5.25082 3.62371 5.47486 3.32634 5.62946C3.02897 5.78407 2.6987 5.86468 2.36354 5.86447C1.82944 5.86162 1.31829 5.64697 0.942297 5.26762C0.566306 4.88827 0.356201 4.37523 0.358106 3.84112C0.362513 3.56132 0.413339 3.28419 0.508514 3.02104C0.696642 2.66523 0.938188 2.34035 1.22474 2.05771C1.61579 1.65929 2.08383 1.34461 2.60036 1.13282C3.1169 0.921039 3.67113 0.816579 4.22932 0.825802C4.79905 0.805793 5.3668 0.903262 5.89723 1.11214C6.42766 1.32103 6.90942 1.63685 7.31253 2.03996C7.71564 2.44306 8.03146 2.92483 8.24034 3.45526C8.44923 3.98569 8.54669 4.55344 8.52668 5.12317H8.51236Z" fill="#DE3030"/>
</g>
<defs>
<clipPath id="clip0_11_631">
<rect width="108" height="40.3487" fill="white" transform="translate(0 0.825684)"/>
</clipPath>
</defs>
</svg>
