<svg width="140" height="53" viewBox="0 0 140 53" fill="none" xmlns="http://www.w3.org/2000/svg">
<g clip-path="url(#clip0_11_658)">
<path d="M42.9451 10.9321H27.8719C27.2309 10.9321 26.7113 11.4517 26.7113 12.0927V21.3678C26.7113 22.0088 27.2309 22.5284 27.8719 22.5284H42.9451C43.5861 22.5284 44.1057 22.0088 44.1057 21.3678V12.0927C44.1057 11.4517 43.5861 10.9321 42.9451 10.9321Z" fill="white"/>
<path d="M42.9451 25.9175H16.2756C15.6346 25.9175 15.1151 26.4371 15.1151 27.078V36.3532C15.1151 36.9941 15.6346 37.5137 16.2756 37.5137H42.9451C43.5861 37.5137 44.1057 36.9941 44.1057 36.3532V27.078C44.1057 26.4371 43.5861 25.9175 42.9451 25.9175Z" fill="white"/>
<path d="M42.9452 40.7075H4.67935C4.0384 40.7075 3.5188 41.2271 3.5188 41.8681V51.1432C3.5188 51.7842 4.0384 52.3038 4.67935 52.3038H42.9452C43.5861 52.3038 44.1057 51.7842 44.1057 51.1432V41.8681C44.1057 41.2271 43.5861 40.7075 42.9452 40.7075Z" fill="white"/>
<path d="M60.1167 14.5117H55.1635V4.37305H52.1089V17.3666H60.1167V14.5117Z" fill="white"/>
<path d="M64.2622 11.3409C63.3371 11.2923 62.426 11.5828 61.6997 12.1579C61.3973 12.4423 61.1611 12.7898 61.0078 13.1757C60.8546 13.5615 60.7881 13.9764 60.813 14.3908C60.8013 14.9497 60.9272 15.5029 61.1798 16.0017C61.4182 16.467 61.7856 16.8538 62.2382 17.1158C62.745 17.3999 63.3194 17.5411 63.9001 17.5243C64.5954 17.5463 65.2812 17.3587 65.8684 16.9858C66.1615 16.7886 66.415 16.5383 66.6158 16.2477V17.3897H69.5311V10.8906C69.5557 10.3961 69.4758 9.902 69.2966 9.44048C69.1175 8.97895 68.843 8.56037 68.4913 8.21201C67.6797 7.53158 66.6376 7.18919 65.5806 7.25571C65.0995 7.25626 64.6195 7.29976 64.1461 7.3857C63.6719 7.47255 63.206 7.5999 62.7535 7.76636C62.2791 7.94314 61.8142 8.14457 61.3608 8.36985L62.2057 10.5099C62.6593 10.2524 63.1405 10.0468 63.6401 9.89714C64.0511 9.77069 64.4776 9.70195 64.9075 9.69288C65.3728 9.65779 65.8336 9.80419 66.1934 10.1014C66.3415 10.249 66.4569 10.4261 66.5321 10.6213C66.6073 10.8164 66.6406 11.0252 66.6297 11.2341V11.3409H64.2622ZM66.2723 14.6508C66.0984 14.8519 65.8809 15.0107 65.6363 15.115C65.3758 15.2286 65.0942 15.2856 64.81 15.2821C64.4812 15.3023 64.1577 15.1922 63.9094 14.9757C63.8017 14.864 63.7181 14.7314 63.6638 14.5861C63.6095 14.4407 63.5857 14.2858 63.5937 14.1308C63.5799 13.9848 63.6009 13.8376 63.6549 13.7012C63.709 13.5648 63.7946 13.4432 63.9048 13.3463C64.1776 13.1615 64.5044 13.0732 64.8332 13.0956H66.6019V13.9451C66.5525 14.2041 66.4392 14.4467 66.2723 14.6508Z" fill="white"/>
<path d="M74.3219 16.0574C74.5302 16.3635 74.7874 16.6332 75.0832 16.8558C75.6539 17.2792 76.3505 17.4983 77.0608 17.4779C77.8388 17.4981 78.604 17.2776 79.2519 16.8465C79.89 16.4029 80.3877 15.786 80.6864 15.0686C81.0402 14.2305 81.2142 13.3274 81.197 12.4179C81.2184 11.4795 81.0396 10.5474 80.6725 9.68359C80.3534 8.95851 79.8371 8.33764 79.1823 7.89169C78.5305 7.45682 77.7606 7.23315 76.9773 7.25107C76.281 7.23983 75.6016 7.46574 75.0507 7.89169C74.7668 8.10831 74.5206 8.37024 74.3219 8.66694V3.61621H71.3555V17.3665H74.3219V16.0574ZM74.5633 11.002C74.7065 10.6476 74.9441 10.3393 75.2504 10.1107C75.5349 9.89593 75.8827 9.78164 76.2391 9.78572C76.6076 9.77795 76.9683 9.8922 77.2651 10.1107C77.5727 10.3419 77.8104 10.6535 77.9521 11.0113C78.2735 11.8592 78.2735 12.7954 77.9521 13.6434C77.8103 13.9998 77.5725 14.3099 77.2651 14.5393C76.9704 14.7476 76.6185 14.8594 76.2577 14.8594C75.8969 14.8594 75.545 14.7476 75.2504 14.5393C74.9397 14.3112 74.7012 13.9986 74.5633 13.6388C74.395 13.2184 74.3129 12.7685 74.3219 12.3157C74.3124 11.866 74.3945 11.419 74.5633 11.002Z" fill="white"/>
<path d="M61.5001 32.0733H55.1635V29.5526H60.7341V26.9019H55.1635V24.4183H61.333V21.749H52.1089V34.7426H61.5001V32.0733Z" fill="white"/>
<path d="M63.0785 21.749V34.7472H66.1284V31.1263H68.2128C69.7076 31.1263 70.865 30.7039 71.6852 29.859C72.5053 29.0141 72.9169 27.8303 72.92 26.3077C72.9575 25.6926 72.8671 25.0763 72.6546 24.4979C72.442 23.9194 72.112 23.3913 71.6852 22.9467C70.865 22.1483 69.7076 21.749 68.2128 21.749H63.0785ZM70.014 26.3912C70.0561 26.9517 69.8741 27.506 69.508 27.9325C69.3149 28.1119 69.0874 28.2501 68.8391 28.3387C68.5909 28.4273 68.3273 28.4644 68.0642 28.4477H66.1284V24.4183H68.0642C68.3305 24.3878 68.6002 24.4184 68.8529 24.5077C69.1056 24.5971 69.3346 24.7428 69.5226 24.9339C69.7105 25.1249 69.8524 25.3563 69.9376 25.6105C70.0227 25.8646 70.0489 26.1348 70.014 26.4005V26.3912Z" fill="white"/>
<path d="M82.7986 33.1174C83.2343 32.4629 83.455 31.6889 83.4299 30.9031C83.4486 30.3172 83.3343 29.7347 83.0957 29.1994C82.8905 28.7643 82.5889 28.3817 82.2137 28.0806C81.8453 27.7978 81.441 27.5652 81.0113 27.3889C80.5809 27.2096 80.1408 27.0546 79.693 26.9247C79.2287 26.79 78.8434 26.6508 78.4767 26.5162C78.1531 26.4063 77.8547 26.2326 77.5993 26.0055C77.493 25.905 77.4091 25.7831 77.3531 25.6479C77.2971 25.5127 77.2703 25.3673 77.2744 25.221C77.2647 25.0832 77.2904 24.9453 77.3488 24.8202C77.4073 24.6951 77.4967 24.587 77.6086 24.5061C77.8721 24.3407 78.1798 24.2597 78.4906 24.274C78.8727 24.2834 79.252 24.3427 79.6187 24.4504C80.0739 24.5712 80.5193 24.7264 80.951 24.9146C81.4107 25.1148 81.8493 25.3605 82.2601 25.6481L83.4114 22.9788C82.036 22.0346 80.4095 21.5237 78.7413 21.5118C77.8952 21.4954 77.0556 21.6633 76.2809 22.0039C75.6034 22.2962 75.0298 22.7863 74.6355 23.41C74.2413 24.0338 74.0446 24.7621 74.0712 25.4995C74.0541 26.0723 74.1651 26.6417 74.3962 27.1661C74.5976 27.5918 74.8985 27.9628 75.2736 28.2477C75.6436 28.5292 76.0495 28.7603 76.4805 28.9348C76.912 29.1114 77.352 29.2663 77.7989 29.399C78.2399 29.529 78.6438 29.6636 79.0106 29.7982C79.3351 29.9092 79.6347 30.0827 79.8926 30.3089C80.0018 30.4076 80.0882 30.5289 80.1459 30.6644C80.2036 30.7998 80.2312 30.9462 80.2268 31.0934C80.2366 31.2555 80.206 31.4174 80.138 31.5648C80.07 31.7122 79.9665 31.8405 79.8369 31.9383C79.5172 32.1454 79.1402 32.2461 78.7599 32.2261C78.2931 32.2144 77.8311 32.1298 77.3904 31.9754C76.8605 31.7995 76.3515 31.566 75.8724 31.2791C75.383 30.9883 74.9295 30.6409 74.5215 30.2439L73.347 32.8342C73.8243 33.2717 74.3546 33.6476 74.9254 33.953C75.5118 34.2708 76.1356 34.5141 76.7823 34.6772C77.4221 34.8432 78.0803 34.9275 78.7413 34.9279C79.5537 34.934 80.3589 34.7762 81.1088 34.4636C81.7874 34.1826 82.373 33.716 82.7986 33.1174Z" fill="white"/>
<path d="M91.9345 34.7426H94.989V24.4926H98.4893V21.749H88.4667V24.4926H91.9345V34.7426Z" fill="white"/>
<path d="M110.643 25.5788C110.341 24.7902 109.888 24.0681 109.31 23.4526C108.744 22.8587 108.063 22.3851 107.309 22.06C106.137 21.5476 104.835 21.4065 103.579 21.6554C102.324 21.9044 101.175 22.5315 100.286 23.4526C99.7063 24.0669 99.2536 24.7894 98.9535 25.5788C98.6334 26.4236 98.4759 27.3214 98.4893 28.2248C98.4751 29.1389 98.6326 30.0474 98.9535 30.9034C99.2503 31.6954 99.698 32.4222 100.272 33.0434C100.849 33.6632 101.547 34.1574 102.324 34.4953C103.1 34.8333 103.937 35.0077 104.784 35.0077C105.631 35.0077 106.468 34.8333 107.245 34.4953C108.021 34.1574 108.719 33.6632 109.296 33.0434C109.876 32.4206 110.329 31.6905 110.629 30.8941C110.95 30.0381 111.107 29.1296 111.093 28.2155C111.111 27.316 110.958 26.4212 110.643 25.5788ZM107.741 29.7568C107.594 30.2075 107.366 30.6275 107.068 30.9962C106.79 31.3373 106.446 31.6185 106.056 31.8225C105.678 32.0207 105.257 32.1227 104.831 32.1196C104.401 32.1212 103.977 32.0193 103.596 31.8225C103.201 31.618 102.851 31.3371 102.565 30.9962C102.257 30.6301 102.019 30.2098 101.864 29.7568C101.694 29.264 101.609 28.746 101.613 28.2248C101.608 27.705 101.693 27.1883 101.864 26.6975C102.019 26.252 102.253 25.8383 102.556 25.4766C102.838 25.1326 103.191 24.8538 103.591 24.6596C103.977 24.4706 104.401 24.3721 104.831 24.3718C105.256 24.3701 105.676 24.4687 106.056 24.6596C106.448 24.857 106.793 25.1355 107.068 25.4766C107.365 25.8392 107.593 26.2529 107.741 26.6975C107.907 27.1894 107.989 27.7058 107.983 28.2248C107.988 28.7484 107.907 29.2693 107.741 29.766V29.7568Z" fill="white"/>
<path d="M115.591 31.1263H117.676C119.17 31.1263 120.328 30.7039 121.148 29.859C121.968 29.0141 122.38 27.8303 122.383 26.3077C122.42 25.6926 122.33 25.0763 122.117 24.4979C121.905 23.9194 121.575 23.3913 121.148 22.9467C120.328 22.1483 119.17 21.749 117.676 21.749H112.523V34.7472H115.591V31.1263ZM118.971 24.9197C119.152 25.1192 119.29 25.3532 119.378 25.6078C119.466 25.8623 119.501 26.132 119.481 26.4005C119.522 26.9617 119.339 27.516 118.971 27.9417C118.778 28.1212 118.55 28.2594 118.302 28.348C118.054 28.4366 117.79 28.4737 117.527 28.457H115.591V24.4183H117.527C117.786 24.4041 118.045 24.4411 118.289 24.5272C118.534 24.6132 118.759 24.7466 118.952 24.9197H118.971Z" fill="white"/>
<path d="M126.714 21.749H123.664V34.7426H126.714V21.749Z" fill="white"/>
<path d="M135.381 27.1015L139.731 21.749H136.193L131.811 27.459V21.749H128.757V34.7426H131.811V31.4977L133.292 29.6733L136.347 34.7426H140L135.381 27.1015Z" fill="white"/>
<path d="M55.1588 39.1245H52.1089V52.1181H55.1588V39.1245Z" fill="white"/>
<path d="M64.9168 42.4344C64.3985 42.115 63.7984 41.9537 63.1898 41.9702C62.4852 41.949 61.7927 42.1576 61.2169 42.5644C60.7936 42.8727 60.4472 43.2747 60.2049 43.7389V42.1095H57.2385V52.1181H60.2049V46.9142C60.2213 46.4148 60.3826 45.9309 60.6691 45.5215C60.818 45.3145 61.0149 45.1468 61.2429 45.0328C61.471 44.9188 61.7233 44.8619 61.9782 44.867C62.1895 44.8598 62.3995 44.9008 62.5926 44.9868C62.7856 45.0729 62.9565 45.2018 63.0924 45.3637C63.3887 45.7513 63.5369 46.232 63.5102 46.7192V52.1135H66.4626V45.7954C66.4806 45.098 66.3443 44.4053 66.0634 43.7668C65.8223 43.2184 65.4231 42.7545 64.9168 42.4344Z" fill="white"/>
<path d="M74.6561 43.4187C74.4449 43.1067 74.1846 42.8308 73.8855 42.6016C73.3189 42.1772 72.6249 41.9579 71.9172 41.9796C71.1452 41.9658 70.3874 42.1876 69.7447 42.6156C69.1019 43.0568 68.5979 43.6719 68.2917 44.3889C67.934 45.2323 67.7599 46.1422 67.781 47.0582C67.76 47.9915 67.9372 48.9187 68.3009 49.7785C68.6068 50.5123 69.1157 51.1436 69.7679 51.5982C70.4237 52.0361 71.1985 52.2614 71.9869 52.2435C72.6862 52.2619 73.3708 52.0408 73.9273 51.6168C74.2082 51.3933 74.4539 51.1289 74.6561 50.8323V52.1182H77.6225V38.3633H74.6561V43.4187ZM74.4101 48.474C74.2692 48.8258 74.0368 49.1335 73.737 49.3653C73.4426 49.5811 73.0852 49.6937 72.7203 49.6857C72.3526 49.693 71.9926 49.5806 71.6944 49.3653C71.3892 49.1357 71.1518 48.8277 71.0074 48.474C70.8395 48.0535 70.7575 47.6037 70.766 47.151C70.7584 46.6939 70.8405 46.2397 71.0074 45.814C71.148 45.4595 71.3862 45.1521 71.6944 44.9274C71.9931 44.7138 72.3532 44.603 72.7203 44.6117C73.0847 44.6023 73.442 44.7132 73.737 44.9274C74.0396 45.1544 74.2728 45.4615 74.4101 45.814C74.5808 46.2387 74.6645 46.6934 74.6561 47.151C74.6655 47.6042 74.5817 48.0545 74.4101 48.474Z" fill="white"/>
<path d="M86.6424 42.6247C85.8393 42.2128 84.9498 41.998 84.0474 41.998C83.1449 41.998 82.2554 42.2128 81.4524 42.6247C80.7204 43.0414 80.1241 43.6603 79.7347 44.4073C79.3145 45.2397 79.1057 46.1628 79.1266 47.0951C79.1068 48.0302 79.3156 48.9561 79.7347 49.7922C80.1236 50.5431 80.7198 51.1666 81.4524 51.5888C82.2525 52.01 83.1431 52.2301 84.0474 52.2301C84.9516 52.2301 85.8422 52.01 86.6424 51.5888C87.3766 51.1657 87.9756 50.5427 88.3693 49.7922C88.7936 48.9576 89.0057 48.0312 88.9867 47.0951C89.0069 46.1618 88.7947 45.2382 88.3693 44.4073C87.9751 43.6608 87.376 43.0423 86.6424 42.6247ZM85.7557 48.4738C85.614 48.8252 85.3778 49.1305 85.0733 49.3559C84.7732 49.5668 84.4141 49.6773 84.0474 49.6715C83.6833 49.6789 83.3266 49.5682 83.0307 49.3559C82.73 49.1277 82.496 48.8231 82.353 48.4738C82.1852 48.0533 82.1031 47.6035 82.1116 47.1508C82.1041 46.6937 82.1861 46.2395 82.353 45.8139C82.4935 45.4618 82.7279 45.1551 83.0307 44.9272C83.3257 44.713 83.683 44.6021 84.0474 44.6115C84.4144 44.6035 84.7743 44.7142 85.0733 44.9272C85.3801 45.1522 85.6167 45.4597 85.7557 45.8139C85.9248 46.2389 86.0069 46.6935 85.9971 47.1508C86.0079 47.6037 85.9257 48.054 85.7557 48.4738Z" fill="white"/>
<path d="M98.0855 42.4346C97.5687 42.1158 96.9702 41.9544 96.3632 41.9704C95.6569 41.9481 94.9627 42.1567 94.3856 42.5646C93.9634 42.8741 93.6173 43.2757 93.3736 43.739V42.1096H90.4072V52.1182H93.3736V46.9143C93.39 46.4149 93.5513 45.931 93.8378 45.5217C93.9893 45.3132 94.1894 45.1449 94.4209 45.0317C94.6523 44.9184 94.908 44.8635 95.1655 44.8717C95.3775 44.8639 95.5885 44.9045 95.7824 44.9906C95.9763 45.0767 96.1479 45.2059 96.2843 45.3685C96.5806 45.7561 96.7288 46.2368 96.7021 46.724V52.1182H99.6545V45.7955C99.6702 45.0984 99.534 44.4061 99.2553 43.7669C99.0059 43.2167 98.5987 42.753 98.0855 42.4346Z" fill="white"/>
<path d="M108.284 42.7084C107.506 42.1975 106.587 41.9427 105.657 41.9796C104.791 41.9629 103.937 42.1828 103.187 42.6156C102.474 43.0428 101.902 43.6688 101.539 44.4168C101.132 45.2631 100.932 46.1937 100.954 47.1324C100.934 48.0551 101.131 48.9696 101.53 49.8017C101.893 50.5431 102.466 51.1614 103.178 51.5797C103.954 52.0135 104.833 52.2315 105.722 52.211C106.5 52.2237 107.272 52.0653 107.983 51.7468C108.633 51.4465 109.206 51.002 109.658 50.447L108.108 48.7433C107.85 49.0567 107.528 49.31 107.162 49.4856C106.796 49.6612 106.397 49.7548 105.991 49.7599C105.585 49.7683 105.185 49.6498 104.849 49.4211C104.508 49.1748 104.244 48.8367 104.088 48.4462C104.031 48.2947 103.985 48.1396 103.949 47.982H110.211C110.294 46.9112 110.161 45.8346 109.821 44.816C109.542 43.9697 109.005 43.2324 108.284 42.7084ZM103.879 46.2226C103.913 45.9919 103.969 45.765 104.046 45.5448C104.175 45.186 104.394 44.8663 104.682 44.6164C104.96 44.3842 105.313 44.262 105.675 44.2728C105.987 44.2659 106.293 44.3498 106.557 44.5142C106.816 44.6766 107.023 44.9103 107.152 45.1874C107.297 45.5173 107.362 45.8767 107.342 46.2365L103.879 46.2226Z" fill="white"/>
<path d="M114.937 44.222C115.382 44.2334 115.821 44.3214 116.236 44.4819C116.781 44.6799 117.306 44.927 117.806 45.22L118.808 43.1078C118.25 42.7252 117.634 42.4338 116.984 42.2444C116.352 42.0529 115.695 41.9559 115.034 41.9565C114.383 41.943 113.738 42.0697 113.14 42.3279C112.609 42.5601 112.153 42.9344 111.822 43.4096C111.483 43.929 111.311 44.5397 111.33 45.1597C111.303 45.6179 111.399 46.0749 111.609 46.4831C111.819 46.8914 112.135 47.2359 112.523 47.4808C112.874 47.7112 113.253 47.8953 113.651 48.0286C114.05 48.1678 114.426 48.2885 114.783 48.3907C115.089 48.4735 115.381 48.5985 115.652 48.762C115.753 48.8178 115.837 48.8998 115.896 48.9994C115.955 49.0991 115.986 49.2127 115.986 49.3284C115.992 49.4606 115.947 49.5901 115.86 49.6905C115.769 49.7883 115.654 49.8603 115.526 49.8994C115.368 49.9528 115.201 49.978 115.034 49.9737C114.491 49.9656 113.955 49.857 113.451 49.6533C112.871 49.4192 112.326 49.1069 111.831 48.7249L110.903 50.8185C111.458 51.2871 112.098 51.6462 112.787 51.877C113.493 52.1098 114.231 52.2273 114.974 52.2251C115.65 52.2388 116.321 52.114 116.947 51.8584C117.495 51.6312 117.965 51.2508 118.302 50.7628C118.639 50.2458 118.81 49.6387 118.794 49.022C118.811 48.5213 118.696 48.025 118.46 47.5829C118.248 47.2063 117.947 46.8875 117.583 46.6545C117.225 46.4276 116.842 46.2437 116.441 46.1067L115.299 45.726C114.991 45.6327 114.694 45.5083 114.412 45.3547C114.312 45.3077 114.227 45.2337 114.168 45.1409C114.108 45.0482 114.075 44.9405 114.073 44.8301C114.066 44.734 114.084 44.6376 114.127 44.551C114.169 44.4645 114.234 44.3909 114.315 44.338C114.505 44.2374 114.722 44.1969 114.937 44.222Z" fill="white"/>
<path d="M123.311 42.1094H120.359V52.118H123.311V42.1094Z" fill="white"/>
<path d="M121.84 37.5135C121.63 37.5046 121.421 37.5415 121.227 37.6216C121.033 37.7018 120.858 37.8233 120.716 37.9777C120.406 38.3203 120.24 38.7692 120.252 39.2311C120.241 39.6859 120.408 40.1269 120.716 40.4613C120.86 40.6168 121.034 40.7408 121.228 40.8256C121.421 40.9105 121.63 40.9543 121.842 40.9543C122.053 40.9543 122.263 40.9105 122.456 40.8256C122.65 40.7408 122.824 40.6168 122.968 40.4613C123.266 40.1221 123.423 39.6823 123.409 39.2311C123.425 38.7727 123.267 38.325 122.968 37.9777C122.824 37.8235 122.649 37.7021 122.455 37.622C122.26 37.5418 122.05 37.5048 121.84 37.5135Z" fill="white"/>
<path d="M129.481 41.9608C129 41.959 128.519 42.0025 128.046 42.0908C127.572 42.176 127.106 42.3018 126.654 42.4668C126.189 42.6339 125.725 42.8382 125.261 43.0703L126.078 45.2568C126.533 45.0025 127.014 44.7986 127.512 44.6486C127.923 44.5201 128.35 44.4513 128.78 44.4444C129.245 44.4093 129.706 44.5557 130.066 44.8529C130.214 44.9993 130.33 45.1755 130.405 45.37C130.48 45.5645 130.513 45.7727 130.502 45.981V46.0924H128.148C127.223 46.0417 126.311 46.3324 125.586 46.9094C125.284 47.1922 125.047 47.5379 124.893 47.9221C124.739 48.3064 124.671 48.7197 124.695 49.133C124.683 49.6919 124.809 50.245 125.061 50.7439C125.303 51.2072 125.669 51.5932 126.12 51.858C126.628 52.1386 127.202 52.2781 127.782 52.2619C128.477 52.2855 129.162 52.0995 129.75 51.728C130.045 51.5259 130.3 51.2709 130.502 50.976V52.118H133.417V45.591C133.442 45.0966 133.362 44.6026 133.182 44.1411C133.003 43.6796 132.729 43.261 132.377 42.9125C131.569 42.2371 130.532 41.8966 129.481 41.9608ZM130.172 49.3883C129.999 49.5897 129.781 49.7486 129.536 49.8526C129.276 49.9662 128.994 50.0232 128.71 50.0197C128.381 50.0399 128.058 49.9298 127.81 49.7133C127.702 49.6028 127.618 49.471 127.563 49.3264C127.509 49.1817 127.485 49.0273 127.494 48.8731C127.479 48.7263 127.5 48.5781 127.554 48.4409C127.608 48.3036 127.694 48.1813 127.805 48.0839C128.078 47.899 128.405 47.8108 128.733 47.8332H130.502V48.6874C130.454 48.9496 130.341 49.1955 130.172 49.4023V49.3883Z" fill="white"/>
<path d="M10.5657 7.20453C10.572 7.58364 10.4993 7.95992 10.3521 8.30937C9.87894 9.18322 9.17414 9.90979 8.31509 10.4093C7.45604 10.9089 6.47596 11.1621 5.48245 11.1411C4.75346 11.158 4.02908 11.0213 3.35643 10.7397C2.68379 10.4582 2.07795 10.0382 1.57834 9.50707C1.06637 8.98907 0.663026 8.37402 0.391987 7.69801C0.120948 7.02201 -0.0123254 6.29868 -1.17522e-05 5.57047C-0.00164655 5.39687 0.00610178 5.2233 0.0231993 5.05054C0.254195 5.6688 0.667976 6.20206 1.20949 6.57938C1.751 6.9567 2.39457 7.16018 3.05457 7.16275C3.59335 7.16174 4.12388 7.03033 4.60084 6.77972C5.07779 6.52912 5.48699 6.16678 5.79348 5.72366C6.02448 5.36526 6.34419 5.07264 6.72158 4.87418C7.09898 4.67572 7.52126 4.57816 7.94747 4.59096C8.63956 4.59581 9.302 4.87257 9.79183 5.36153C10.2817 5.8505 10.5596 6.51244 10.5657 7.20453Z" fill="white"/>
<path d="M11.0345 5.57056C11.0345 5.76553 11.0345 5.95122 11.0113 6.14155C10.7845 5.51077 10.3704 4.96429 9.82453 4.57522C9.27866 4.18614 8.62701 3.97302 7.95673 3.96435H7.89174C7.37254 3.96346 6.86138 4.09256 6.40487 4.33987C5.94835 4.58718 5.56102 4.94484 5.27817 5.38023C5.02884 5.73603 4.69738 6.02645 4.3119 6.22687C3.92642 6.42729 3.4983 6.53178 3.06383 6.5315C2.37147 6.52782 1.70887 6.24956 1.22147 5.75781C0.734077 5.26606 0.46172 4.60101 0.464189 3.90865C0.469901 3.54594 0.535788 3.1867 0.659162 2.84558C0.903031 2.38434 1.21615 1.9632 1.58761 1.59682C2.09452 1.08035 2.70124 0.672429 3.37082 0.397892C4.0404 0.123356 4.75885 -0.0120557 5.48243 -9.97717e-05C6.22096 -0.0260376 6.95693 0.100312 7.64453 0.371085C8.33213 0.641858 8.95664 1.05126 9.47918 1.5738C10.0017 2.09635 10.4111 2.72086 10.6819 3.40846C10.9527 4.09605 11.079 4.83203 11.0531 5.57056H11.0345Z" fill="white"/>
</g>
<defs>
<clipPath id="clip0_11_658">
<rect width="140" height="52.3039" fill="white"/>
</clipPath>
</defs>
</svg>
