<svg width="147" height="46" viewBox="0 0 147 46" fill="none" xmlns="http://www.w3.org/2000/svg">
<path d="M0.00577295 19.9747C-0.0172605 17.7711 0.0211288 15.4448 0.259141 13.1261C0.535542 10.4235 1.56437 8.02032 3.41472 6.01641C5.61058 3.62861 8.32852 2.1084 11.4841 1.37133C13.7951 0.833888 16.1292 0.695687 18.5016 0.918344C20.613 1.11797 22.663 1.54792 24.5594 2.50765C28.6287 4.57298 31.3696 7.71321 32.2449 12.2892C32.3217 12.6884 32.3601 13.0877 32.4138 13.4869C32.4369 13.6635 32.3908 13.8247 32.3294 13.9937C30.5328 18.8691 28.7361 23.7445 26.9472 28.6199C25.7879 31.7678 24.6285 34.908 23.4845 38.0559C23.354 38.4245 23.1313 38.6087 22.7551 38.7162C20.9201 39.2383 19.0467 39.4763 17.135 39.5301C14.5552 39.6068 12.0215 39.3381 9.58768 38.4705C6.5703 37.3956 3.99056 35.7142 2.19395 32.9886C1.00389 31.1766 0.428053 29.1727 0.243785 27.0306C0.0364844 24.7349 -0.00958268 22.4239 0.00577295 19.9747ZM22.0564 18.9228C22.0564 17.5255 22.0795 16.1204 22.0488 14.7231C22.0181 13.1952 21.6342 11.7517 20.8894 10.4004C19.1005 7.16808 15.5073 6.97614 13.2961 8.64222C11.8066 9.77086 11.1002 11.3678 10.7854 13.1568C10.486 14.8305 10.5397 16.535 10.4783 18.2241C10.3939 20.6196 10.6012 23.0151 10.6165 25.4106C10.6242 26.4855 10.7854 27.5296 11.1156 28.5508C11.9448 31.1075 13.8412 32.8888 16.7204 32.7429C18.7857 32.6354 20.1984 31.668 21.0123 29.7946C21.7417 28.1208 21.8568 26.3319 21.9797 24.543C22.1102 22.6696 22.0641 20.7962 22.0564 18.9228Z" fill="#6B7FA6"/>
<path d="M54.1651 45.9794C52.5911 45.9794 51.0172 45.9717 49.4355 45.987C49.0747 45.987 48.8827 45.8872 48.7599 45.5264C48.0996 43.5609 47.4086 41.6107 46.7406 39.6452C46.6331 39.3227 46.4872 39.1845 46.1417 39.1922C42.6253 39.1999 39.1089 39.1999 35.6001 39.1922C35.2623 39.1922 35.1318 39.3534 35.0319 39.6375C34.3486 41.6107 33.6423 43.5685 32.9666 45.5417C32.8591 45.8565 32.7132 45.9947 32.3601 45.9947C29.1661 45.987 25.9798 45.987 22.7858 45.987C22.3175 45.987 22.2791 45.9333 22.4403 45.5033C23.4385 42.9006 24.4366 40.2978 25.427 37.695C26.8167 34.0327 28.1987 30.3704 29.5884 26.7081C31.5002 21.6714 33.4196 16.6425 35.3314 11.6135C35.7153 10.5923 36.1145 9.57887 36.4907 8.55772C36.5982 8.26596 36.7671 8.17383 37.0666 8.17383C39.5849 8.18151 42.1032 8.18151 44.6215 8.17383C44.9517 8.17383 45.1283 8.289 45.2511 8.60379C46.7867 12.6423 48.3299 16.6808 49.8655 20.7117C51.6007 25.2646 53.3358 29.8176 55.071 34.3705C56.4914 38.0943 57.9118 41.818 59.3322 45.5417C59.4858 45.9487 59.4627 45.9947 59.0098 45.9947C57.3974 45.9794 55.7774 45.9794 54.1651 45.9794ZM41.0897 21.7943C40.9208 22.3931 40.798 22.9229 40.6214 23.4373C39.6386 26.3549 38.6405 29.2725 37.6578 32.19C37.4965 32.666 37.5272 32.7044 38.0109 32.7044C39.9995 32.7044 41.9957 32.7044 43.9843 32.7044C44.468 32.7044 44.491 32.6584 44.3375 32.1823C43.9075 30.8618 43.4622 29.5489 43.0553 28.2283C42.5025 26.4547 41.8422 24.7195 41.3815 22.9152C41.297 22.5774 41.297 22.2012 41.0897 21.7943Z" fill="#6B7FA6"/>
<path d="M68.1706 17.6997C67.175 17.137 66.3958 16.3795 65.8115 15.3839C65.2271 14.4099 64.9457 13.2845 64.9457 12.0508C64.9457 10.8171 65.2271 9.71332 65.8115 8.73937C66.3958 7.76541 67.175 6.98626 68.1706 6.42353C69.1662 5.86081 70.2484 5.60107 71.4171 5.60107C72.6075 5.60107 73.6897 5.88245 74.6853 6.42353C75.6592 6.98626 76.4384 7.74377 77.0228 8.73937C77.5855 9.71332 77.8885 10.8388 77.8885 12.0508C77.8885 13.2845 77.6071 14.4099 77.0228 15.3839C76.46 16.3578 75.6592 17.137 74.6853 17.6997C73.6897 18.2625 72.6075 18.5222 71.4388 18.5222C70.2484 18.5438 69.1446 18.2625 68.1706 17.6997ZM73.4299 15.7518C74.0143 15.4055 74.4688 14.9077 74.7935 14.2801C75.1181 13.6308 75.2913 12.8949 75.2913 12.0508C75.2913 11.2067 75.1181 10.4708 74.7935 9.84319C74.4688 9.21553 74.0143 8.71773 73.4299 8.39308C72.8456 8.04678 72.1746 7.89528 71.4171 7.89528C70.6596 7.89528 69.9887 8.06843 69.4043 8.39308C68.8199 8.73937 68.3654 9.21553 68.0407 9.84319C67.7161 10.4708 67.5429 11.2067 67.5429 12.0508C67.5429 12.8949 67.7161 13.6308 68.0407 14.2801C68.3654 14.9294 68.8199 15.4055 69.4043 15.7518C69.9887 16.0981 70.6596 16.2713 71.4171 16.2713C72.1746 16.2713 72.8456 16.0981 73.4299 15.7518Z" fill="#6B7FA6"/>
<path d="M83.6456 8.67423C84.2084 8.37122 84.8793 8.21973 85.6152 8.21973C86.4809 8.21973 87.2384 8.43615 87.931 8.84738C88.6236 9.28024 89.1647 9.86463 89.5759 10.6438C89.9871 11.423 90.1819 12.332 90.1819 13.3492C90.1819 14.3665 89.9871 15.2755 89.5759 16.0763C89.1647 16.8771 88.6236 17.4831 87.931 17.916C87.2384 18.3488 86.4593 18.5653 85.6152 18.5653C84.8793 18.5653 84.23 18.4138 83.6673 18.1108C83.1045 17.8077 82.65 17.4398 82.3037 16.9636V23.1753H79.7715V8.39287H82.3037V9.84298C82.6284 9.36683 83.0613 8.99888 83.6456 8.67423ZM87.2168 11.7909C86.9787 11.358 86.6541 11.0117 86.2428 10.7953C85.8316 10.5572 85.3987 10.449 84.9226 10.449C84.4681 10.449 84.0352 10.5572 83.624 10.7953C83.2128 11.0334 82.8881 11.3797 82.65 11.8125C82.4119 12.267 82.2821 12.7865 82.2821 13.3925C82.2821 13.9985 82.4119 14.518 82.65 14.9725C82.8881 15.427 83.2128 15.7516 83.624 15.9897C84.0352 16.2278 84.4681 16.336 84.9226 16.336C85.3987 16.336 85.8316 16.2061 86.2428 15.9681C86.6541 15.73 86.9787 15.3837 87.2168 14.9292C87.4549 14.4747 87.5847 13.9552 87.5847 13.3276C87.6064 12.7648 87.4765 12.2454 87.2168 11.7909Z" fill="#6B7FA6"/>
<path d="M95.9174 8.67423C96.4801 8.37122 97.1511 8.21973 97.887 8.21973C98.7527 8.21973 99.5102 8.43615 100.203 8.84738C100.895 9.28024 101.436 9.86463 101.848 10.6438C102.259 11.423 102.454 12.332 102.454 13.3492C102.454 14.3665 102.259 15.2755 101.848 16.0763C101.436 16.8771 100.895 17.4831 100.203 17.916C99.5102 18.3488 98.7311 18.5653 97.887 18.5653C97.1511 18.5653 96.5018 18.4138 95.9391 18.1108C95.3763 17.8077 94.9218 17.4398 94.5755 16.9636V23.1753H92.0432V8.39287H94.5539V9.84298C94.8785 9.36683 95.333 8.99888 95.9174 8.67423ZM99.4886 11.7909C99.2505 11.358 98.9258 11.0117 98.5146 10.7953C98.1034 10.5572 97.6705 10.449 97.1944 10.449C96.7399 10.449 96.307 10.5572 95.8958 10.7953C95.4845 11.0334 95.1599 11.3797 94.9218 11.8125C94.6837 12.267 94.5539 12.7865 94.5539 13.3925C94.5539 13.9985 94.6837 14.518 94.9218 14.9725C95.1599 15.427 95.4845 15.7516 95.8958 15.9897C96.307 16.2278 96.7399 16.336 97.1944 16.336C97.6705 16.336 98.1034 16.2061 98.5146 15.9681C98.9258 15.73 99.2505 15.3837 99.4886 14.9292C99.7266 14.4747 99.8565 13.9552 99.8565 13.3276C99.8565 12.7648 99.7483 12.2454 99.4886 11.7909Z" fill="#6B7FA6"/>
<path d="M104.25 10.6654C104.661 9.88626 105.202 9.28024 105.895 8.84738C106.588 8.43615 107.367 8.21973 108.211 8.21973C108.968 8.21973 109.618 8.37122 110.18 8.67423C110.743 8.97724 111.198 9.34517 111.522 9.82133V8.39287H114.076V18.4138H111.522V16.942C111.198 17.4182 110.743 17.8077 110.18 18.1108C109.618 18.4138 108.947 18.5653 108.189 18.5653C107.345 18.5653 106.566 18.3488 105.873 17.916C105.181 17.4831 104.64 16.8771 104.228 16.0763C103.817 15.2971 103.622 14.3881 103.622 13.3492C103.644 12.3536 103.839 11.4446 104.25 10.6654ZM111.176 11.8125C110.938 11.3797 110.613 11.0334 110.202 10.7953C109.791 10.5572 109.358 10.449 108.882 10.449C108.406 10.449 107.973 10.5572 107.583 10.7953C107.194 11.0334 106.869 11.358 106.609 11.7909C106.371 12.2238 106.241 12.7432 106.241 13.3492C106.241 13.9552 106.371 14.4747 106.609 14.9292C106.847 15.3837 107.172 15.73 107.583 15.9681C107.994 16.2061 108.427 16.336 108.882 16.336C109.358 16.336 109.791 16.2278 110.202 15.9897C110.613 15.7516 110.938 15.427 111.176 14.9725C111.414 14.5396 111.544 13.9985 111.544 13.3925C111.544 12.7865 111.414 12.2454 111.176 11.8125Z" fill="#6B7FA6"/>
<path d="M73.4732 38.6563H68.452L67.6295 41.0587H64.9457L69.4909 28.4189H72.4344L76.9795 41.0587H74.2957L73.4732 38.6563ZM72.7806 36.6218L70.9626 31.3408L69.1446 36.6218H72.7806Z" fill="#6B7FA6"/>
<path d="M84.6196 41.0589L81.2216 36.7951V41.0589H78.6893V27.6616H81.2216V35.2801L84.5763 31.038H87.8661L83.4508 36.0593L87.9094 41.0589H84.6196Z" fill="#6B7FA6"/>
<path d="M89.208 33.3104C89.6192 32.5313 90.1603 31.9253 90.8529 31.4924C91.5455 31.0812 92.3246 30.8647 93.1687 30.8647C93.9262 30.8647 94.5755 31.0162 95.1383 31.3193C95.701 31.6223 96.1555 31.9902 96.4801 32.4663V31.0379H99.0341V41.0588H96.4801V39.587C96.1555 40.0632 95.701 40.4528 95.1383 40.7558C94.5755 41.0588 93.9046 41.2103 93.1471 41.2103C92.303 41.2103 91.5238 40.9938 90.8312 40.561C90.1386 40.1281 89.5975 39.5221 89.1863 38.7213C88.7751 37.9421 88.5803 37.0331 88.5803 35.9942C88.602 34.9986 88.7967 34.0896 89.208 33.3104ZM96.1122 34.4575C95.8741 34.0247 95.5495 33.6784 95.1383 33.4403C94.727 33.2022 94.2942 33.094 93.818 33.094C93.3418 33.094 92.909 33.2022 92.5194 33.4403C92.1298 33.6784 91.8052 34.003 91.5454 34.4359C91.3074 34.8688 91.1775 35.3882 91.1775 35.9942C91.1775 36.6002 91.3074 37.1197 91.5454 37.5742C91.7835 38.0287 92.1082 38.375 92.5194 38.6131C92.9306 38.8512 93.3635 38.981 93.818 38.981C94.2942 38.981 94.727 38.8728 95.1383 38.6347C95.5495 38.3966 95.8741 38.072 96.1122 37.6175C96.3503 37.1846 96.4801 36.6435 96.4801 36.0375C96.4801 35.4315 96.3719 34.8904 96.1122 34.4575Z" fill="#6B7FA6"/>
<path d="M101.458 33.3105C101.869 32.5314 102.41 31.9254 103.103 31.4925C103.796 31.0813 104.575 30.8648 105.44 30.8648C106.09 30.8648 106.717 31.0163 107.302 31.2977C107.886 31.5791 108.362 31.9687 108.709 32.4232V27.6616H111.284V41.0589H108.709V39.5655C108.384 40.0633 107.951 40.4529 107.388 40.7559C106.826 41.0589 106.155 41.2104 105.419 41.2104C104.575 41.2104 103.796 40.9939 103.103 40.5611C102.41 40.1282 101.848 39.5222 101.458 38.7214C101.047 37.9422 100.852 37.0332 100.852 35.9943C100.852 34.9987 101.069 34.0897 101.458 33.3105ZM108.384 34.4576C108.146 34.0248 107.821 33.6785 107.41 33.4404C106.999 33.2023 106.566 33.0941 106.09 33.0941C105.614 33.0941 105.181 33.2023 104.791 33.4404C104.402 33.6785 104.077 34.0031 103.817 34.436C103.579 34.8689 103.449 35.3883 103.449 35.9943C103.449 36.6003 103.579 37.1198 103.817 37.5743C104.055 38.0288 104.38 38.3751 104.791 38.6132C105.202 38.8512 105.635 38.9811 106.09 38.9811C106.566 38.9811 106.999 38.8729 107.41 38.6348C107.821 38.3967 108.146 38.0721 108.384 37.6176C108.622 37.1847 108.752 36.6436 108.752 36.0376C108.752 35.4316 108.622 34.8905 108.384 34.4576Z" fill="#6B7FA6"/>
<path d="M123.015 36.795H115.678C115.743 37.5093 115.981 38.0936 116.435 38.5049C116.89 38.9161 117.431 39.1109 118.08 39.1109C119.011 39.1109 119.682 38.6997 120.093 37.8988H122.82C122.539 38.8728 121.976 39.652 121.154 40.2796C120.331 40.9073 119.336 41.2103 118.124 41.2103C117.15 41.2103 116.284 40.9938 115.526 40.561C114.769 40.1281 114.163 39.5221 113.73 38.7429C113.297 37.9638 113.081 37.0547 113.081 36.0375C113.081 34.9986 113.297 34.0896 113.708 33.3104C114.141 32.5313 114.725 31.9253 115.483 31.4924C116.241 31.0812 117.128 30.8647 118.102 30.8647C119.054 30.8647 119.898 31.0595 120.656 31.4708C121.413 31.882 121.998 32.4663 122.409 33.2239C122.82 33.9814 123.037 34.8471 123.037 35.8211C123.101 36.189 123.08 36.5137 123.015 36.795ZM120.483 35.1068C120.461 34.4575 120.245 33.9381 119.768 33.5485C119.314 33.1589 118.751 32.9642 118.08 32.9642C117.453 32.9642 116.933 33.1589 116.5 33.5269C116.067 33.9165 115.808 34.4359 115.721 35.1068H120.483Z" fill="#6B7FA6"/>
<path d="M140.373 32.0117C141.13 32.7692 141.498 33.8081 141.498 35.1716V41.0586H138.966V35.5179C138.966 34.7388 138.771 34.1327 138.36 33.7215C137.971 33.3103 137.429 33.0939 136.737 33.0939C136.044 33.0939 135.503 33.3103 135.092 33.7215C134.681 34.1327 134.486 34.7388 134.486 35.5179V41.0586H131.954V35.5179C131.954 34.7388 131.759 34.1327 131.348 33.7215C130.958 33.3103 130.417 33.0939 129.724 33.0939C129.032 33.0939 128.469 33.3103 128.079 33.7215C127.668 34.1327 127.473 34.7388 127.473 35.5179V41.0586H124.941V31.0377H127.473V32.2498C127.798 31.8385 128.209 31.4922 128.729 31.2542C129.248 31.0161 129.811 30.8862 130.417 30.8862C131.196 30.8862 131.91 31.0594 132.516 31.384C133.122 31.7087 133.599 32.1848 133.945 32.8125C134.27 32.2281 134.746 31.7736 135.373 31.4273C136.001 31.081 136.672 30.9079 137.386 30.9079C138.62 30.8862 139.615 31.2542 140.373 32.0117Z" fill="#6B7FA6"/>
<path d="M144.074 29.4148C143.771 29.1334 143.641 28.7871 143.641 28.3542C143.641 27.943 143.793 27.5751 144.074 27.2937C144.377 27.0123 144.745 26.8608 145.178 26.8608C145.632 26.8608 146 27.0123 146.282 27.2937C146.585 27.5751 146.714 27.9214 146.714 28.3542C146.714 28.7871 146.563 29.1334 146.282 29.4148C145.979 29.6961 145.611 29.8476 145.178 29.8476C144.745 29.826 144.377 29.6961 144.074 29.4148ZM146.433 31.038V41.0589H143.901V31.038H146.433Z" fill="#6B7FA6"/>
</svg>
