<svg width="48" height="49" viewBox="0 0 48 49" fill="none" xmlns="http://www.w3.org/2000/svg">
<path d="M30 46H18C7.14 46 2.5 41.36 2.5 30.5V18.5C2.5 7.64 7.14 3 18 3H30C40.86 3 45.5 7.64 45.5 18.5V30.5C45.5 41.36 40.86 46 30 46ZM18 6C8.78 6 5.5 9.28 5.5 18.5V30.5C5.5 39.72 8.78 43 18 43H30C39.22 43 42.5 39.72 42.5 30.5V18.5C42.5 9.28 39.22 6 30 6H18Z" fill="#687DCA"/>
<path d="M42.96 16.2202H5.03999C4.21999 16.2202 3.53999 15.5402 3.53999 14.7202C3.53999 13.9002 4.19999 13.2202 5.03999 13.2202H42.96C43.78 13.2202 44.46 13.9002 44.46 14.7202C44.46 15.5402 43.8 16.2202 42.96 16.2202Z" fill="#687DCA"/>
<path d="M17.04 15.9402C16.22 15.9402 15.54 15.2602 15.54 14.4402V4.72021C15.54 3.90021 16.22 3.22021 17.04 3.22021C17.86 3.22021 18.54 3.90021 18.54 4.72021V14.4402C18.54 15.2602 17.86 15.9402 17.04 15.9402Z" fill="#687DCA"/>
<path d="M30.96 15.0402C30.14 15.0402 29.46 14.3602 29.46 13.5402V4.72021C29.46 3.90021 30.14 3.22021 30.96 3.22021C31.78 3.22021 32.46 3.90021 32.46 4.72021V13.5402C32.46 14.3802 31.8 15.0402 30.96 15.0402Z" fill="#687DCA"/>
<path d="M22.18 36.74C21.46 36.74 20.78 36.56 20.16 36.22C18.8 35.42 18 33.82 18 31.8V27C18 24.98 18.8 23.36 20.18 22.56C21.56 21.76 23.36 21.88 25.1 22.9L29.26 25.3C31 26.3 32.02 27.8 32.02 29.4C32.02 31 31 32.5 29.24 33.5L25.08 35.9C24.12 36.46 23.12 36.74 22.18 36.74ZM22.2 25.04C22 25.04 21.82 25.08 21.68 25.16C21.26 25.4 21 26.08 21 27V31.8C21 32.7 21.26 33.38 21.68 33.64C22.1 33.88 22.82 33.76 23.6 33.3L27.76 30.9C28.54 30.44 29.02 29.88 29.02 29.4C29.02 28.92 28.56 28.36 27.76 27.9L23.6 25.5C23.08 25.2 22.58 25.04 22.2 25.04Z" fill="#687DCA"/>
</svg>
