<svg width="48" height="48" viewBox="0 0 48 48" fill="none" xmlns="http://www.w3.org/2000/svg">
<path d="M27 18.5H4C3.18 18.5 2.5 17.82 2.5 17C2.5 16.18 3.18 15.5 4 15.5H27C27.82 15.5 28.5 16.18 28.5 17C28.5 17.82 27.82 18.5 27 18.5Z" fill="#687DCA"/>
<path d="M16 34.5H12C11.18 34.5 10.5 33.82 10.5 33C10.5 32.18 11.18 31.5 12 31.5H16C16.82 31.5 17.5 32.18 17.5 33C17.5 33.82 16.82 34.5 16 34.5Z" fill="#687DCA"/>
<path d="M29 34.5H21C20.18 34.5 19.5 33.82 19.5 33C19.5 32.18 20.18 31.5 21 31.5H29C29.82 31.5 30.5 32.18 30.5 33C30.5 33.82 29.82 34.5 29 34.5Z" fill="#687DCA"/>
<path d="M35.12 42.5H12.88C4.92 42.5 2.5 40.1 2.5 32.22V15.78C2.5 7.9 4.92 5.5 12.88 5.5H27C27.82 5.5 28.5 6.18 28.5 7C28.5 7.82 27.82 8.5 27 8.5H12.88C6.6 8.5 5.5 9.58 5.5 15.78V32.2C5.5 38.4 6.6 39.48 12.88 39.48H35.1C41.38 39.48 42.48 38.4 42.48 32.2V22.04C42.48 21.22 43.16 20.54 43.98 20.54C44.8 20.54 45.48 21.22 45.48 22.04V32.2C45.5 40.1 43.08 42.5 35.12 42.5Z" fill="#687DCA"/>
<path d="M36 16.4999C35.62 16.4999 35.24 16.3599 34.94 16.0599L31.94 13.0599C31.36 12.4799 31.36 11.5199 31.94 10.9399C32.52 10.3599 33.48 10.3599 34.06 10.9399L36 12.8799L42.94 5.93988C43.52 5.35988 44.48 5.35988 45.06 5.93988C45.64 6.51988 45.64 7.47988 45.06 8.05988L37.06 16.0599C36.76 16.3599 36.38 16.4999 36 16.4999Z" fill="#687DCA"/>
</svg>
