<svg width="48" height="49" viewBox="0 0 48 49" fill="none" xmlns="http://www.w3.org/2000/svg">
<path d="M13.04 33.0198C12.66 33.0198 12.28 32.8798 11.98 32.5798C11.4 31.9998 11.4 31.0398 11.98 30.4598L18.08 24.3598C18.66 23.7798 19.62 23.7798 20.2 24.3598C20.78 24.9398 20.78 25.8998 20.2 26.4798L14.1 32.5798C13.8 32.8598 13.42 33.0198 13.04 33.0198Z" fill="#687DCA"/>
<path d="M19.2 33.0799C18.82 33.0799 18.44 32.9399 18.14 32.6399L12.04 26.5399C11.46 25.9599 11.46 24.9999 12.04 24.4199C12.62 23.8399 13.58 23.8399 14.16 24.4199L20.26 30.5199C20.84 31.0999 20.84 32.0599 20.26 32.6399C19.96 32.9399 19.58 33.0799 19.2 33.0799Z" fill="#687DCA"/>
<path d="M27.08 30.5C25.98 30.5 25.06 29.6 25.06 28.5C25.06 27.4 25.94 26.5 27.04 26.5H27.08C28.18 26.5 29.08 27.4 29.08 28.5C29.08 29.6 28.2 30.5 27.08 30.5Z" fill="#687DCA"/>
<path d="M34.96 30.5C33.86 30.5 32.94 29.6 32.94 28.5C32.94 27.4 33.82 26.5 34.92 26.5H34.96C36.06 26.5 36.96 27.4 36.96 28.5C36.96 29.6 36.06 30.5 34.96 30.5Z" fill="#687DCA"/>
<path d="M31 34.4399C29.9 34.4399 29 33.5599 29 32.4599V32.4199C29 31.3199 29.9 30.4199 31 30.4199C32.1 30.4199 33 31.3199 33 32.4199C33 33.5199 32.12 34.4399 31 34.4399Z" fill="#687DCA"/>
<path d="M31 26.56C29.9 26.56 29 25.68 29 24.58V24.54C29 23.44 29.9 22.54 31 22.54C32.1 22.54 33 23.44 33 24.54C33 25.64 32.12 26.56 31 26.56Z" fill="#687DCA"/>
<path d="M30 46H18C7.14 46 2.5 41.36 2.5 30.5V26.5C2.5 15.64 7.14 11 18 11H30C40.86 11 45.5 15.64 45.5 26.5V30.5C45.5 41.36 40.86 46 30 46ZM18 14C8.78 14 5.5 17.28 5.5 26.5V30.5C5.5 39.72 8.78 43 18 43H30C39.22 43 42.5 39.72 42.5 30.5V26.5C42.5 17.28 39.22 14 30 14H18Z" fill="#687DCA"/>
<path d="M25.98 14H23.98C22.06 14 20.48 12.42 20.48 10.5C20.48 8.58 22.04 7 23.96 7C24.28 7 24.5 6.78 24.52 6.5L24.54 4.48C24.56 3.66 25.22 3 26.04 3H26.06C26.88 3.02 27.56 3.7 27.54 4.52L27.52 6.54C27.5 8.44 25.92 10 24.02 10C23.7 10 23.5 10.22 23.5 10.5C23.5 10.78 23.72 11 24 11H26C26.82 11 27.5 11.68 27.5 12.5C27.5 13.32 26.8 14 25.98 14Z" fill="#687DCA"/>
</svg>
